<svg width="52" height="52" viewBox="0 0 52 52" fill="none" xmlns="http://www.w3.org/2000/svg">
<rect x="0.464951" y="0.463975" width="50.7952" height="50.7952" rx="5.86099" fill="#FFF9F0"/>
<rect x="0.464951" y="0.463975" width="50.7952" height="50.7952" rx="5.86099" stroke="#FFEACC" stroke-width="0.781465"/>
<path d="M22.6906 39.0103H29.0346C32.6478 39.0103 34.4337 37.1553 34.4025 33.4454C34.361 29.2085 34.3402 26.131 34.2364 23.8228C33.9353 17.0354 32.056 15.0434 25.8678 15.0434C19.6796 15.0434 17.7899 17.0354 17.4888 23.8228C17.385 26.131 17.3642 29.2085 17.3227 33.4454C17.2915 37.1553 19.0774 39.0103 22.6906 39.0103ZM22.3895 34.8261C21.4966 34.8261 20.9255 34.2358 20.9255 33.3506V27.9122C20.9255 27.0163 21.4966 26.4261 22.3895 26.4261H29.3461C30.2286 26.4261 30.7997 27.0163 30.7997 27.9122V33.3506C30.7997 34.2358 30.2286 34.8261 29.3461 34.8261H22.3895ZM20.9255 30.4838H30.7997V29.2296H20.9255V30.4838ZM25.8678 12.5771C23.8743 12.5771 22.4726 13.9473 22.4726 15.8128H23.9366C23.9366 14.7905 24.7257 14.0632 25.8678 14.0632C26.9995 14.0632 27.799 14.7905 27.799 15.8128H29.263C29.263 13.9473 27.8509 12.5771 25.8678 12.5771Z" fill="#AAB5C4"/>
</svg>
