<svg width="19" height="25" viewBox="0 0 19 25" fill="none" xmlns="http://www.w3.org/2000/svg">
<path d="M3.68343 24.5006H18.084C18.5734 24.5006 18.9736 24.1114 18.9736 23.611C18.9736 23.2217 18.7068 22.877 18.351 22.7547C16.9498 22.1987 16.6606 20.3861 18.0396 18.9961C18.4622 18.5735 18.9736 18.0287 18.9736 16.9166V4.16178C18.9736 1.84879 17.8283 0.670044 15.5264 0.670044H3.71678C1.41491 0.670044 0.269531 1.83766 0.269531 4.16178V21.0645C0.269531 23.3552 1.42603 24.5006 3.68343 24.5006ZM3.7835 22.7103C2.66037 22.7103 2.05988 22.1098 2.05988 21.0534C2.05988 20.0525 2.77157 19.4076 3.88359 19.4076H15.2929C15.4375 19.4076 15.5709 19.3965 15.6821 19.3742C15.1594 20.5307 15.2485 21.754 15.8377 22.7103H3.7835ZM3.4499 17.7172C3.10518 17.7172 2.81605 17.4282 2.81605 17.0724V3.02753C2.81605 2.67168 3.10518 2.39368 3.4499 2.39368C3.79462 2.39368 4.09487 2.67168 4.09487 3.02753V17.0724C4.09487 17.4282 3.79462 17.7172 3.4499 17.7172Z" fill="#AAB5C4"/>
</svg>