<svg width="28" height="28" viewBox="0 0 28 28" fill="none" xmlns="http://www.w3.org/2000/svg">
<path d="M8.02523 25.5004H22.4258C22.9152 25.5004 23.3154 25.1111 23.3154 24.6108C23.3154 24.2215 23.0486 23.8768 22.6928 23.7544C21.2916 23.1985 21.0024 21.3858 22.3814 19.9959C22.804 19.5733 23.3154 19.0284 23.3154 17.9164V5.16154C23.3154 2.84854 22.1701 1.6698 19.8682 1.6698H8.05858C5.75671 1.6698 4.61133 2.83742 4.61133 5.16154V22.0642C4.61133 24.3549 5.76783 25.5004 8.02523 25.5004ZM8.1253 23.71C7.00217 23.71 6.40168 23.1096 6.40168 22.0531C6.40168 21.0523 7.11337 20.4073 8.22538 20.4073H19.6347C19.7793 20.4073 19.9127 20.3962 20.0239 20.3739C19.5012 21.5305 19.5903 22.7537 20.1795 23.71H8.1253ZM7.7917 18.717C7.44697 18.717 7.15785 18.428 7.15785 18.0721V4.02728C7.15785 3.67144 7.44697 3.39343 7.7917 3.39343C8.13642 3.39343 8.43667 3.67144 8.43667 4.02728V18.0721C8.43667 18.428 8.13642 18.717 7.7917 18.717Z" fill="#AAB5C4"/>
</svg>
