<svg width="28" height="29" viewBox="0 0 28 29" fill="none" xmlns="http://www.w3.org/2000/svg">
<g clip-path="url(#clip0_2468_6348)">
<path d="M14 0.5C6.26886 0.5 0 6.76886 0 14.5C0 22.2311 6.26886 28.5 14 28.5C15.2911 28.5 16.3333 27.4578 16.3333 26.1667C16.3333 25.56 16.1078 25.0155 15.7267 24.6033C15.3611 24.1911 15.1433 23.6545 15.1433 23.0555C15.1433 21.7644 16.1855 20.7222 17.4767 20.7222H20.2222C24.5155 20.7222 28 17.2377 28 12.9444C28 6.06886 21.7311 0.5 14 0.5ZM5.44447 14.5C4.15333 14.5 3.11114 13.4578 3.11114 12.1667C3.11114 10.8755 4.15333 9.83333 5.44447 9.83333C6.7356 9.83333 7.7778 10.8755 7.7778 12.1667C7.7778 13.4578 6.73553 14.5 5.44447 14.5ZM10.1111 8.2778C8.82 8.2778 7.7778 7.2356 7.7778 5.94447C7.7778 4.65333 8.82 3.61114 10.1111 3.61114C11.4023 3.61114 12.4445 4.65333 12.4445 5.94447C12.4445 7.2356 11.4022 8.2778 10.1111 8.2778ZM17.8889 8.2778C16.5977 8.2778 15.5555 7.2356 15.5555 5.94447C15.5555 4.65333 16.5977 3.61114 17.8889 3.61114C19.18 3.61114 20.2222 4.65333 20.2222 5.94447C20.2222 7.2356 19.18 8.2778 17.8889 8.2778ZM22.5555 14.5C21.2644 14.5 20.2222 13.4578 20.2222 12.1667C20.2222 10.8755 21.2644 9.83333 22.5555 9.83333C23.8467 9.83333 24.8889 10.8755 24.8889 12.1667C24.8889 13.4578 23.8467 14.5 22.5555 14.5Z" fill="#37DFCF"/>
</g>
<defs>
<clipPath id="clip0_2468_6348">
<rect width="28" height="28" fill="white" transform="translate(0 0.5)"/>
</clipPath>
</defs>
</svg>
