<svg width="28" height="31" viewBox="0 0 28 31" fill="none" xmlns="http://www.w3.org/2000/svg">
<path d="M0.874512 5.08594V7.72266C0.874512 10.125 6.79248 12 13.9995 12C21.2651 12 27.1245 10.125 27.1245 7.72266V5.08594C27.1245 2.68359 21.2651 0.75 13.9995 0.75C6.79248 0.75 0.874512 2.68359 0.874512 5.08594ZM0.874512 11.0625V17.0977C0.874512 19.5 6.79248 21.375 13.9995 21.375C21.2651 21.375 27.1245 19.5 27.1245 17.0977V11.0625C24.312 13.0547 19.1558 13.9336 13.9995 13.9336C8.90186 13.9336 3.74561 13.0547 0.874512 11.0625ZM0.874512 20.4375V26.4727C0.874512 28.875 6.79248 30.75 13.9995 30.75C21.2651 30.75 27.1245 28.875 27.1245 26.4727V20.4375C24.312 22.4297 19.1558 23.3086 13.9995 23.3086C8.90186 23.3086 3.74561 22.4297 0.874512 20.4375Z" fill="#9DCCFF"/>
</svg>
