<svg width="64" height="66" viewBox="0 0 64 66" fill="none" xmlns="http://www.w3.org/2000/svg">
<rect x="1.15099" y="0.558701" width="61.8992" height="64.8935" rx="5.86099" fill="#FFF9F0"/>
<rect x="1.15099" y="0.558701" width="61.8992" height="64.8935" rx="5.86099" stroke="#FFEACC" stroke-width="0.781465"/>
<path d="M26.0252 44.5004H40.4258C40.9152 44.5004 41.3154 44.1111 41.3154 43.6108C41.3154 43.2215 41.0486 42.8768 40.6928 42.7544C39.2916 42.1985 39.0024 40.3858 40.3814 38.9959C40.804 38.5733 41.3154 38.0284 41.3154 36.9164V24.1615C41.3154 21.8485 40.1701 20.6698 37.8682 20.6698H26.0586C23.7567 20.6698 22.6113 21.8374 22.6113 24.1615V41.0642C22.6113 43.3549 23.7678 44.5004 26.0252 44.5004ZM26.1253 42.71C25.0022 42.71 24.4017 42.1096 24.4017 41.0531C24.4017 40.0523 25.1134 39.4073 26.2254 39.4073H37.6347C37.7793 39.4073 37.9127 39.3962 38.0239 39.3739C37.5012 40.5305 37.5903 41.7537 38.1795 42.71H26.1253ZM25.7917 37.717C25.447 37.717 25.1578 37.428 25.1578 37.0721V23.0273C25.1578 22.6714 25.447 22.3934 25.7917 22.3934C26.1364 22.3934 26.4367 22.6714 26.4367 23.0273V37.0721C26.4367 37.428 26.1364 37.717 25.7917 37.717Z" fill="#AAB5C4"/>
</svg>
