<svg width="80" height="80" viewBox="0 0 80 80" fill="none" xmlns="http://www.w3.org/2000/svg">
<path d="M29.1456 1.80741C16.659 2.73135 6.04387 3.58106 5.54479 3.68056C4.14545 3.93011 2.87246 4.87932 2.27387 6.12862L1.74951 7.22787L1.80005 33.4268L1.87428 59.6257L2.67345 61.2493C3.12358 62.148 6.17023 66.3445 9.49168 70.6641C16.0604 79.1802 16.5342 79.6556 19.0312 79.9051C19.7561 79.9793 25.2003 79.7298 31.0946 79.3807C37.0141 79.0064 46.5031 78.4315 52.1984 78.1078C76.5226 76.631 75.2733 76.7558 76.6711 75.557C78.4194 74.1087 78.2947 76.481 78.3689 44.6389C78.4194 17.6408 78.3942 15.8687 77.9946 15.0443C77.5208 14.1203 76.6711 13.4712 65.5821 5.67849C58.1653 0.483876 57.641 0.209062 54.3179 0.158522C52.9454 0.109561 41.607 0.858192 29.1456 1.80741ZM57.2161 5.22836C58.2648 5.70218 65.9328 11.0468 67.0557 12.0719C67.3558 12.3719 67.4553 12.6215 67.3053 12.7715C66.9562 13.0716 19.5034 15.894 18.1309 15.6934C17.5071 15.5939 16.5831 15.2196 16.0588 14.869C13.8855 13.3954 8.49193 8.97468 8.49193 8.6509C8.49193 7.80119 8.31661 7.80119 29.471 6.27866C33.5174 6.00385 40.1603 5.50476 44.2067 5.1794C52.9707 4.47973 55.5941 4.505 57.2161 5.22836ZM72.3009 18.8901C72.6499 19.2391 72.95 19.9135 73.0495 20.5627C73.1237 21.1628 73.1743 32.3512 73.1237 45.3875C73.0495 67.7643 73.0242 69.1637 72.5994 69.8128C72.3498 70.2124 71.8508 70.6372 71.4749 70.762C70.4277 71.1869 20.7038 74.0092 19.6803 73.7092C19.2065 73.5844 18.5558 73.1848 18.2068 72.8358L17.6066 72.1866L17.5324 48.0614C17.4818 31.1288 17.5324 23.6362 17.7329 22.9618C17.883 22.4627 18.2573 21.8625 18.5827 21.6635C19.0328 21.3634 21.9799 21.1139 32.1196 20.5153C39.2379 20.1157 50.251 19.4413 56.5702 19.067C71.6012 18.1415 71.5522 18.1415 72.3009 18.8901Z" fill="#606060"/>
<path d="M58.9394 27.1565C56.2418 27.3319 53.8443 27.5814 53.5695 27.7314C52.745 28.1563 52.2459 28.856 52.1464 29.6551C52.0722 30.4796 52.3217 30.5791 55.0178 30.9044L56.1912 31.0545V41.7185C56.1912 48.0614 56.0917 52.2578 55.967 52.133C55.8422 51.983 52.2965 46.5894 48.0748 40.1455C43.8546 33.6779 40.3579 28.3569 40.3073 28.3079C40.2568 28.2574 37.5102 28.4074 34.214 28.6333C30.1676 28.9081 27.9454 29.1576 27.4953 29.4072C26.7704 29.7815 25.9712 31.105 25.9712 31.98C25.9712 32.5044 26.9204 32.7792 28.9183 32.7792H29.967V63.4478L28.2692 63.9721C26.9457 64.3717 26.4955 64.6213 26.2713 65.1204C25.8717 65.9701 25.897 66.744 26.2965 66.744C26.4466 66.744 29.269 66.5687 32.5146 66.3697C38.9332 65.9953 39.6566 65.82 40.331 64.4965C40.5316 64.0969 40.7053 63.6721 40.7053 63.5473C40.7053 63.4478 39.8319 63.1477 38.7816 62.8982C37.7076 62.6486 36.6337 62.3991 36.4094 62.3485C35.9845 62.2238 35.9593 61.4498 35.9593 50.71V39.1962L43.5514 51.1096C51.5178 63.5962 52.5176 65.0209 53.7416 65.6447C55.2657 66.4439 59.1368 65.8943 61.0842 64.6213L61.6844 64.247L61.7349 47.2148L61.8091 30.1574L63.1327 29.9078C64.7057 29.6078 65.4307 28.8844 65.4307 27.6351C65.4307 26.8359 65.3801 26.7854 64.6315 26.8107C64.1845 26.8312 61.6117 26.9812 58.9394 27.1565Z" fill="#606060"/>
</svg>
