<svg width="28" height="29" viewBox="0 0 28 29" fill="none" xmlns="http://www.w3.org/2000/svg">
<g clip-path="url(#clip0_2468_6318)">
<path d="M0 3.61099V13.7222H13.2222V0.5H3.11099C1.39282 0.5 0 1.89282 0 3.61099ZM4.2778 6.3334H5.8334V4.7778C5.8334 4.34821 6.18161 4 6.61121 4C7.0408 4 7.38901 4.34821 7.38901 4.7778V6.3334H8.94461C9.37399 6.3334 9.72241 6.68161 9.72241 7.11121C9.72241 7.5408 9.37421 7.88901 8.94461 7.88901H7.38901V9.44461C7.38901 9.87399 7.0408 10.2224 6.61121 10.2224C6.18161 10.2224 5.8334 9.87421 5.8334 9.44461V7.88901H4.2778C3.84821 7.88901 3.5 7.5408 3.5 7.11121C3.5 6.68161 3.84821 6.3334 4.2778 6.3334Z" fill="#918CFF"/>
<path d="M24.8885 0.5H14.7773V13.7222H27.9995V3.61099C27.9995 1.89282 26.6067 0.5 24.8885 0.5ZM23.7217 7.88901H19.0551C18.6255 7.88901 18.2773 7.5408 18.2773 7.11099C18.2773 6.6814 18.6255 6.33319 19.0551 6.33319H23.7217C24.1513 6.33319 24.4995 6.6814 24.4995 7.11099C24.4995 7.5408 24.1513 7.88901 23.7217 7.88901Z" fill="#918CFF"/>
<path d="M0 25.389C0 27.1072 1.39282 28.5 3.11099 28.5H13.2222V15.2778H0V25.389ZM4.41153 20.7891C4.1131 20.48 4.12164 19.9878 4.43054 19.6894C4.73196 19.3982 5.20984 19.3982 5.51126 19.6894L6.61121 20.7891L7.71094 19.6894C8.02005 19.3909 8.51245 19.3995 8.81088 19.7084C9.10184 20.0098 9.10184 20.4877 8.81088 20.7891L7.71094 21.889L8.81088 22.9888C9.11978 23.2872 9.12833 23.7796 8.8299 24.0885C8.53146 24.3976 8.03906 24.4062 7.73016 24.1077C7.72354 24.1015 7.71735 24.0951 7.71094 24.0885L6.61121 22.9888L5.51126 24.0885C5.20236 24.3871 4.70996 24.3786 4.41153 24.0695C4.12036 23.7681 4.12036 23.2902 4.41153 22.9888L5.51126 21.889L4.41153 20.7891Z" fill="#918CFF"/>
<path d="M14.7773 28.5H24.8885C26.6067 28.5 27.9995 27.1072 27.9995 25.389V15.2778H14.7773V28.5ZM19.0551 19.5556H23.7217C24.1513 19.5556 24.4995 19.9038 24.4995 20.3334C24.4995 20.763 24.1513 21.1112 23.7217 21.1112H19.0551C18.6255 21.1112 18.2773 20.763 18.2773 20.3334C18.2773 19.9038 18.6255 19.5556 19.0551 19.5556ZM19.0551 22.6666H23.7217C24.1513 22.6666 24.4995 23.0148 24.4995 23.4444C24.4995 23.874 24.1513 24.2222 23.7217 24.2222H19.0551C18.6255 24.2222 18.2773 23.874 18.2773 23.4444C18.2773 23.0148 18.6255 22.6666 19.0551 22.6666Z" fill="#918CFF"/>
</g>
<defs>
<clipPath id="clip0_2468_6318">
<rect width="28" height="28" fill="white" transform="translate(0 0.5)"/>
</clipPath>
</defs>
</svg>
