<svg width="31" height="31" viewBox="0 0 31 31" fill="none" xmlns="http://www.w3.org/2000/svg">
<path d="M20.2148 18.9141L15.0586 23.1914C15.0586 23.3672 15 23.543 15 23.7188C15 28.2305 18.1055 30.75 22.5 30.75C27.832 30.75 30 26.5312 30.0586 21.7266C29.4727 22.0781 27.4219 23.7188 26.7773 23.7188C26.4258 23.7188 26.0742 23.4844 25.957 23.1328C24.7266 19.9688 22.6172 19.0312 20.2148 18.9141ZM3.22266 0.75C1.52344 0.75 0 1.98047 0 3.67969C0 4.61719 0.410156 5.55469 0.820312 6.375C7.44141 18.7383 9.55078 21.375 13.2422 21.375C13.6523 21.375 14.1211 21.3164 14.5312 21.1992L18.2812 18.0938C18.5742 17.3906 18.75 16.6289 18.75 15.8672C18.75 12.7031 17.5195 12.4688 5.56641 1.74609C4.92188 1.16016 4.10156 0.75 3.22266 0.75Z" fill="#49BBBD"/>
</svg>
