<svg width="157" height="156" viewBox="0 0 157 156" fill="none" xmlns="http://www.w3.org/2000/svg">
<path d="M17.3413 123.562L17.2115 123.692C15.4586 119.861 14.3549 115.511 13.9004 110.707C14.3549 115.446 15.5884 119.731 17.3413 123.562Z" fill="#C4C4C4"/>
<path d="M59.0221 67.533C67.5559 67.533 74.4739 60.615 74.4739 52.0812C74.4739 43.5474 67.5559 36.6294 59.0221 36.6294C50.4883 36.6294 43.5703 43.5474 43.5703 52.0812C43.5703 60.615 50.4883 67.533 59.0221 67.533Z" fill="#C4C4C4"/>
<path d="M105.703 13.127H51.2967C27.6646 13.127 13.5762 27.2154 13.5762 50.8475V105.253C13.5762 112.33 14.8097 118.498 17.2119 123.692C22.7953 136.027 34.7412 142.974 51.2967 142.974H105.703C129.335 142.974 143.423 128.886 143.423 105.253V90.3859V50.8475C143.423 27.2154 129.335 13.127 105.703 13.127ZM132.841 81.2966C127.777 76.9467 119.596 76.9467 114.532 81.2966L87.524 104.474C82.46 108.824 74.2796 108.824 69.2156 104.474L67.0082 102.656C62.3986 98.6312 55.0623 98.2416 49.8684 101.748L25.587 118.043C24.1587 114.408 23.3147 110.188 23.3147 105.253V50.8475C23.3147 32.5391 32.9883 22.8655 51.2967 22.8655H105.703C124.011 22.8655 133.685 32.5391 133.685 50.8475V82.0108L132.841 81.2966Z" fill="#C4C4C4"/>
</svg>
