<svg width="462" height="477" viewBox="0 0 462 477" fill="none" xmlns="http://www.w3.org/2000/svg">
<path d="M0 0H462V477H0V0Z" fill="#D9D9D9"/>
<path d="M0 0H462V477H0V0Z" fill="#D9D9D9"/>
<path d="M146.511 310.464L146.321 310.654C143.756 305.063 142.141 298.714 141.476 291.701C142.141 298.619 143.946 304.873 146.511 310.464Z" fill="white"/>
<path d="M207.5 228.685C219.987 228.685 230.11 218.588 230.11 206.132C230.11 193.676 219.987 183.579 207.5 183.579C195.012 183.579 184.89 193.676 184.89 206.132C184.89 218.588 195.012 228.685 207.5 228.685Z" fill="white"/>
<path d="M275.805 149.275H196.195C161.615 149.275 141 169.839 141 204.332V283.741C141 294.07 142.805 303.073 146.32 310.654C154.49 328.658 171.97 338.798 196.195 338.798H275.805C310.385 338.798 331 318.235 331 283.741V262.041V204.332C331 169.839 310.385 149.275 275.805 149.275ZM315.515 248.775C308.105 242.426 296.135 242.426 288.725 248.775L249.205 282.604C241.795 288.953 229.825 288.953 222.415 282.604L219.185 279.951C212.44 274.076 201.705 273.507 194.105 278.624L158.575 302.409C156.485 297.103 155.25 290.943 155.25 283.741V204.332C155.25 177.609 169.405 163.49 196.195 163.49H275.805C302.595 163.49 316.75 177.609 316.75 204.332V249.817L315.515 248.775Z" fill="white"/>
</svg>
