<svg width="406" height="312" viewBox="0 0 406 312" fill="none" xmlns="http://www.w3.org/2000/svg">
<path d="M298.847 53.5803C286.915 74.8184 268.772 90.8734 249.172 103.783C229.682 116.622 208.856 126.664 188.669 138.036C169.143 149.033 150.038 161.629 134.576 178.809C127.127 187.087 120.65 196.263 115.024 205.959C108.514 217.181 103.427 229.14 97.3425 240.593C85.0827 263.684 70.0359 284.986 52.4244 303.996C50.1623 306.436 47.8681 308.839 45.5424 311.21C45.4265 311.329 45.5936 311.506 45.7127 311.385C63.7511 292.996 79.5853 272.472 92.5116 249.871C95.829 244.071 98.9645 238.163 101.945 232.178C104.889 226.269 107.603 220.25 110.662 214.395C116.124 203.947 122.4 193.913 129.788 184.792C144.543 166.578 163.326 153.045 182.928 141.608C202.982 129.911 223.85 119.994 243.604 107.648C262.898 95.5896 281.373 80.9397 294.432 61.2705C296.067 58.8079 297.605 56.2809 299.055 53.6973C299.138 53.5532 298.929 53.4329 298.847 53.5803Z" fill="white"/>
<path d="M300.554 52.2658C293.918 62.9179 285.791 72.5956 277.086 81.4457C268.345 90.3322 258.799 98.3799 248.71 105.422C238.52 112.54 227.671 118.466 216.741 124.035C205.642 129.691 194.287 134.766 183.37 140.856C162.264 152.633 143.336 169.704 127.438 188.625C119.936 197.552 113.243 207.144 107.668 217.48C102.12 227.768 96.9718 238.224 91.0285 248.297C79.6653 267.557 66.4823 285.592 51.445 301.911C49.4536 304.07 47.4348 306.199 45.39 308.304C45.2741 308.423 45.4412 308.599 45.5603 308.479C61.0072 292.573 74.7783 275.015 86.622 256.031C92.607 246.435 98.1195 236.538 103.307 226.477C106.187 220.889 109.005 215.299 112.281 209.93C115.374 204.865 118.753 199.988 122.365 195.305C129.901 185.535 138.331 176.473 147.233 168.091C156.52 159.35 166.684 151.276 177.377 144.659C188.096 138.026 199.512 132.917 210.687 127.357C221.682 121.887 232.626 116.2 243.063 109.496C262.99 96.6959 281.381 79.7988 295.59 60.0965C297.401 57.588 299.126 55.0154 300.762 52.3828C300.853 52.2433 300.644 52.123 300.554 52.2658Z" fill="white"/>
<path d="M302.261 50.952C294.987 61.5203 286.444 71.2517 277.761 80.5565C269.278 89.6474 260.218 98.3226 250.375 105.705C240.843 112.855 230.431 118.542 219.909 123.668C208.97 128.998 197.67 133.337 186.797 138.819C175.848 144.339 166.187 151.982 156.841 160.232C147.316 168.639 138.424 177.995 129.712 187.337C122.098 195.5 114.767 203.933 108.816 213.518C105.608 218.683 102.848 224.124 99.8897 229.442C97.1034 234.455 94.2494 239.426 91.308 244.344C79.6323 263.86 66.4077 282.346 51.1937 299.047C49.2377 301.194 47.251 303.311 45.2409 305.401C45.125 305.52 45.2952 305.695 45.4111 305.576C60.9857 289.371 74.7272 271.424 86.7634 252.228C92.8557 242.515 98.5388 232.538 104 222.444C109.673 211.963 116.354 202.51 124.23 193.69C132.714 184.191 141.595 174.96 150.74 166.179C155.335 161.768 160.141 157.621 165.033 153.595C170.004 149.508 175.118 145.644 180.613 142.441C191.48 136.106 203.207 131.795 214.491 126.524C224.961 121.634 235.343 116.319 245.071 109.769C254.833 103.2 263.791 95.1758 272.177 86.716C281.086 77.7278 289.627 68.1212 297.4 58.0261C299.149 55.755 300.843 53.4346 302.472 51.0679C302.564 50.9351 302.356 50.8148 302.261 50.952Z" fill="white"/>
<path d="M303.99 49.6134C296.123 59.9808 287.312 69.6505 278.734 79.3687C270.538 88.6545 262.038 97.9221 252.495 105.662C243.397 113.038 233.142 118.658 222.784 123.517C212.053 128.554 200.94 132.275 190.137 137.055C184.68 139.472 179.347 142.309 174.454 145.941C169.544 149.585 165.005 153.775 160.449 157.907C151.046 166.432 142.473 175.946 133.453 184.918C125.508 192.82 117.154 200.448 110.415 209.569C106.868 214.37 103.951 219.552 100.955 224.72C98.0109 229.797 95.0269 234.852 91.9752 239.864C79.8867 259.717 66.5885 278.78 51.1343 295.973C49.1488 298.182 47.1344 300.353 45.0909 302.503C44.9758 302.625 45.1452 302.797 45.2611 302.678C61.0448 286.085 74.8053 267.633 87.1297 248.137C93.436 238.163 99.2155 227.888 105.264 217.757C111.299 207.644 119.174 199.395 127.404 191.258C131.764 186.945 136.122 182.636 140.431 178.265C144.998 173.633 149.424 168.838 154.058 164.276C158.417 159.988 162.949 155.872 167.547 151.879C172.645 147.447 177.959 143.48 183.834 140.374C194.591 134.687 206.172 131.187 217.222 126.323C227.439 121.826 237.547 116.725 246.863 110.207C256.374 103.555 264.754 95.079 272.707 86.4397C281.467 76.9211 290.017 67.0842 298.316 57.1196C300.315 54.7186 302.271 52.2817 304.161 49.792C304.259 49.6539 304.092 49.4775 303.99 49.6134Z" fill="white"/>
<path d="M305.694 48.3006C297.377 58.2467 288.499 67.6551 280.183 77.6078C272.337 86.9966 264.516 96.6364 255.493 104.812C246.872 112.619 236.686 118.329 226.434 123.063C221.493 125.344 216.473 127.399 211.407 129.287C205.738 131.4 199.974 133.133 194.302 135.232C188.69 137.312 183.153 139.79 178.07 143.216C172.997 146.638 168.508 150.978 164.074 155.278C159.638 159.582 155.24 163.902 151.028 168.453C146.549 173.296 142.072 178.103 137.348 182.682C133.04 186.859 128.603 190.877 124.109 194.828C120.163 198.299 116.221 201.787 112.645 205.692C104.716 214.349 99.1506 225.097 92.9312 235.068C80.29 255.33 66.8508 275.093 51.0787 292.883C49.0639 295.154 47.0144 297.393 44.9376 299.602C44.8225 299.725 44.9927 299.9 45.1078 299.777C61.2485 282.623 75.131 263.464 87.8961 243.502C91.0878 238.51 94.2221 233.475 97.3296 228.429C100.603 223.112 103.679 217.6 107.347 212.559C113.998 203.42 122.714 196.578 130.891 189.096C135.526 184.854 140.052 180.482 144.42 175.93C148.96 171.202 153.29 166.262 157.915 161.623C162.18 157.346 166.517 153.074 171.026 149.083C176.259 144.449 181.905 140.769 188.134 137.993C193.738 135.493 199.536 133.661 205.295 131.714C210.562 129.93 215.779 127.957 220.93 125.772C230.973 121.509 240.914 116.464 249.845 109.765C259.003 102.896 266.73 93.9288 274.2 85.1158C278.416 80.1384 282.561 75.0917 286.793 70.1267C291.049 65.1327 295.486 60.314 299.844 55.4216C301.88 53.1372 303.896 50.8305 305.861 48.4768C305.971 48.3455 305.801 48.1703 305.694 48.3006Z" fill="white"/>
<path d="M307.397 46.9874C303.169 51.5807 298.805 56.027 294.567 60.6092C290.117 65.4202 285.898 70.436 281.797 75.58C274.168 85.1542 266.917 95.1725 258.374 103.892C250.421 112.008 240.516 117.802 230.57 122.429C220.362 127.179 209.879 130.365 199.254 133.532C193.6 135.218 187.964 137.156 182.695 140.095C177.224 143.147 172.54 147.349 168.078 151.887C163.664 156.371 159.262 160.89 155.025 165.561C150.624 170.412 146.404 175.424 141.769 180.04C137.225 184.566 132.44 188.819 127.47 192.799C123.387 196.07 119.136 199.1 115.161 202.531C110.991 206.131 107.248 210.209 104.06 214.798C100.544 219.862 97.3165 225.166 93.9694 230.352C80.7306 250.873 67.2017 271.26 51.1955 289.595C49.096 291.999 46.9573 294.365 44.7872 296.7C44.6721 296.822 44.8423 296.997 44.9573 296.875C61.3863 279.218 75.3395 259.426 88.5772 239.123C91.9278 233.981 95.2461 228.818 98.5723 223.66C102.02 218.316 105.342 212.876 109.633 208.202C113.395 204.103 117.694 200.674 122.045 197.334C126.458 193.942 130.818 190.494 134.993 186.768C144.796 178.02 153.018 167.686 162.226 158.284C166.704 153.712 171.017 148.892 175.985 144.906C181.083 140.813 186.876 137.988 192.839 135.868C198.534 133.844 204.356 132.412 210.103 130.614C215.195 129.022 220.235 127.16 225.194 125.08C234.94 120.99 244.592 115.962 253.018 109.096C261.934 101.829 269.091 92.1884 276.218 83.0712C280.203 77.9719 284.19 72.865 288.371 67.9393C292.519 63.0566 296.92 58.4317 301.322 53.8068C303.42 51.6022 305.514 49.3986 307.573 47.1605C307.682 47.0401 307.512 46.865 307.397 46.9874Z" fill="white"/>
<path d="M309.104 45.6718C304.718 50.0032 300.255 54.2532 295.989 58.7193C291.397 63.5211 287.128 68.6082 283.076 73.9151C275.685 83.5931 269.027 93.9047 261.012 103.052C253.577 111.536 243.91 117.495 234.096 122.106C224.125 126.79 213.827 129.946 203.329 132.48C197.573 133.869 191.793 135.354 186.315 137.914C180.867 140.457 176.117 144.084 171.799 148.472C167.397 152.943 163.201 157.712 159.024 162.415C154.578 167.418 150.437 172.722 145.858 177.594C141.447 182.288 136.701 186.626 131.674 190.545C127.332 193.931 122.737 196.842 118.205 199.906C113.897 202.82 109.802 206.05 106.296 210.04C102.23 214.664 98.9287 220.057 95.4786 225.176C81.3655 246.115 67.5992 267.373 51.1625 286.465C49.024 288.948 46.8486 291.389 44.6348 293.797C44.5198 293.92 44.6899 294.095 44.8049 293.972C61.7036 275.595 75.8533 254.903 89.7952 234.081C93.2978 228.849 96.8027 223.613 100.358 218.417C104.022 213.059 107.856 208.138 112.861 204.109C116.949 200.82 121.417 198.156 125.71 195.211C130.422 191.979 134.935 188.403 139.194 184.51C144.024 180.095 148.387 175.25 152.624 170.213C156.852 165.185 161.268 160.362 165.654 155.485C170.03 150.619 174.412 145.608 179.758 141.929C185.056 138.283 190.968 136.036 196.956 134.37C202.578 132.805 208.278 131.693 213.883 130.024C218.83 128.55 223.731 126.829 228.544 124.832C238.114 120.86 247.607 115.821 255.646 108.767C264.272 101.201 270.811 91.066 277.574 81.7406C281.41 76.4501 285.319 71.2037 289.526 66.229C293.716 61.2737 298.252 56.66 302.856 52.134C304.991 50.0349 307.14 47.9525 309.271 45.8479C309.394 45.7301 309.223 45.555 309.104 45.6718Z" fill="white"/>
<path d="M310.814 44.3614C301.33 52.8696 292.257 61.5205 284.576 71.9233C277.406 81.6357 271.361 92.195 263.928 101.699C257.012 110.543 247.93 116.778 238.228 121.508C228.32 126.336 217.898 129.648 207.332 131.736C201.568 132.876 195.755 133.904 190.151 135.969C184.556 138.032 179.413 141.18 174.989 145.487C170.536 149.817 166.683 154.813 162.596 159.517C158.048 164.75 153.856 170.299 149.332 175.548C141.096 185.1 131.425 192.518 120.693 198.431C116.257 200.876 111.845 203.376 107.986 206.838C103.4 210.949 99.9267 216.198 96.3476 221.24C81.4679 242.189 67.6012 263.951 50.9868 283.505C48.8604 286.007 46.6909 288.471 44.4885 290.896C44.3774 291.02 44.5443 291.196 44.6585 291.071C61.768 272.242 75.9457 250.985 90.4854 230.025C94.2411 224.611 98.0056 219.19 101.935 213.907C105.578 209.01 109.994 205.049 115.059 201.934C119.604 199.139 124.377 196.84 128.858 193.914C133.79 190.696 138.445 186.973 142.753 182.842C147.656 178.139 151.857 172.835 156.168 167.552C160.323 162.461 164.643 157.526 168.885 152.52C173.222 147.405 177.802 142.563 183.547 139.29C189.045 136.158 195.049 134.508 201.038 133.25C206.538 132.093 212.048 131.156 217.495 129.616C222.512 128.198 227.474 126.483 232.331 124.447C241.825 120.469 251.265 115.251 258.898 107.782C266.937 99.9122 272.745 89.5362 279.049 80.1998C282.808 74.6355 286.73 69.1598 291.073 64.0686C295.251 59.1686 299.837 54.678 304.541 50.3515C306.67 48.3931 308.827 46.4647 310.98 44.5341C311.104 44.423 310.935 44.2512 310.814 44.3614Z" fill="white"/>
<path d="M312.541 43.0257C302.865 50.9102 293.774 59.2349 286.312 69.5417C279.173 79.4038 273.62 90.3272 266.667 100.316C263.4 105.008 259.737 109.12 255.321 112.633C251.061 116.021 246.423 118.838 241.644 121.241C231.819 126.179 221.264 129.587 210.696 131.328C199.201 133.221 187.347 134.416 177.81 142.886C172.994 147.163 169.243 152.549 165.162 157.55C160.8 162.891 156.564 168.317 152.313 173.749C144.328 183.949 134.358 192.216 122.991 197.54C118.415 199.682 113.707 201.517 109.476 204.457C104.413 207.971 100.722 212.881 96.9897 217.844C81.3883 238.585 67.4799 260.674 50.8069 280.541C48.6895 283.065 46.5314 285.545 44.3348 287.992C44.2238 288.117 44.3906 288.293 44.5048 288.167C61.814 268.883 76.03 247.062 91.248 226.035C95.1121 220.697 98.9157 215.053 103.331 210.195C107.419 205.694 112.326 202.683 117.637 200.239C122.39 198.054 127.123 195.97 131.603 193.12C136.627 189.922 141.314 186.091 145.566 181.785C150.383 176.909 154.419 171.342 158.668 165.943C162.743 160.763 166.889 155.627 171.046 150.52C175.56 144.971 180.57 140.15 186.921 137.203C192.664 134.534 198.803 133.417 204.872 132.483C215.236 130.89 225.301 128.607 235.211 124.463C244.518 120.571 253.805 115.337 261.065 107.74C264.788 103.843 267.805 99.2217 270.692 94.6429C273.882 89.5873 276.867 84.3997 280.039 79.3317C283.637 73.5916 287.48 67.9843 291.828 62.8253C296.045 57.8189 300.767 53.311 305.666 49.0744C307.962 47.0874 310.306 45.1592 312.653 43.2443C312.786 43.141 312.67 42.9201 312.541 43.0257Z" fill="white"/>
<path d="M314.245 41.711C304.289 49.0678 295.074 57.2106 287.731 67.5494C280.638 77.5383 275.562 88.7345 269.108 99.1284C266.162 103.873 262.883 108.139 258.726 111.779C254.53 115.454 249.838 118.461 244.991 120.987C235.34 126.019 224.771 129.488 214.301 131.024C202.647 132.734 190.448 132.633 180.327 140.674C175.323 144.648 171.584 150.033 167.765 155.192C163.629 160.779 159.309 166.22 155.166 171.806C147.27 182.451 137.798 191.545 125.928 196.701C121.259 198.728 116.351 199.975 111.746 202.208C106.338 204.831 102.29 208.865 98.4418 213.633C81.8029 234.243 67.7121 256.921 50.8292 277.331C48.6576 279.956 46.4452 282.538 44.1897 285.081C44.0787 285.206 44.2487 285.38 44.3597 285.256C61.9868 265.366 76.3337 242.792 92.4697 221.645C96.4937 216.37 100.511 210.492 105.639 206.349C110.014 202.812 115.069 200.978 120.157 199.184C131.013 195.35 140.646 189.135 148.714 180.249C153.445 175.039 157.418 169.101 161.691 163.487C165.676 158.25 169.544 152.845 173.699 147.755C178.198 142.245 183.52 137.94 189.975 135.54C195.946 133.318 202.188 132.681 208.351 132.011C218.627 130.888 228.69 128.49 238.46 124.339C247.764 120.386 257.085 114.916 263.955 106.864C267.469 102.745 270.231 97.9115 272.892 93.1847C275.814 87.9947 278.563 82.7051 281.582 77.5684C285.018 71.7235 288.802 66.0486 293.174 60.9053C297.502 55.8114 302.412 51.3005 307.551 47.1612C309.787 45.3606 312.07 43.6264 314.373 41.9244C314.495 41.8318 314.38 41.6143 314.245 41.711Z" fill="white"/>
<path d="M315.95 40.398C305.565 47.3466 296.101 55.4755 288.788 66.0519C281.823 76.1266 277.239 87.4811 271.31 98.1576C268.61 103.019 265.604 107.488 261.594 111.285C257.587 115.081 253.019 118.174 248.274 120.752C238.807 125.896 228.397 129.273 218.061 130.818C206.536 132.54 194.408 131.115 183.794 137.975C178.456 141.424 174.51 146.526 170.846 151.792C166.888 157.479 162.754 163.021 158.734 168.66C154.493 174.612 150.32 180.492 144.98 185.434C140.204 189.854 134.791 193.512 128.981 196.052C123.95 198.252 118.678 199.158 113.531 200.84C108.179 202.592 103.556 205.639 99.6685 210.04C81.921 230.121 67.7984 253.346 50.8502 274.127C48.6276 276.853 46.3587 279.541 44.0451 282.183C43.9348 282.311 44.1041 282.482 44.2151 282.358C62.0243 261.999 76.4427 238.844 93.4596 217.814C97.651 212.636 101.852 207.012 107.584 203.704C112.417 200.914 117.777 200.008 122.958 198.489C134.295 195.169 144.336 187.751 152.065 178.19C156.676 172.483 160.683 166.225 165.061 160.324C168.931 155.108 172.36 149.451 176.637 144.581C181.342 139.222 187.208 135.652 193.783 133.924C199.796 132.347 205.928 132.185 212.011 131.718C222.176 130.935 232.319 128.338 241.92 124.13C251.066 120.123 260.242 114.457 266.6 106.107C269.89 101.791 272.406 96.7976 274.847 91.9493C277.479 86.7206 279.972 81.417 282.79 76.2871C286.06 70.3354 289.764 64.5825 294.134 59.4239C298.52 54.2459 303.566 49.7277 308.895 45.6944C311.239 43.9197 313.641 42.2357 316.077 40.608C316.208 40.5233 316.089 40.3069 315.95 40.398Z" fill="white"/>
<path d="M317.654 39.0864C306.929 45.57 297.241 53.6483 289.964 64.3684C282.993 74.6429 278.84 86.2851 273.346 97.3469C270.858 102.354 268.075 107.032 264.164 111C260.295 114.93 255.794 118.117 251.094 120.751C241.627 126.059 231.122 129.413 220.718 130.846C209.313 132.415 197.36 130.188 186.513 136.057C180.858 139.116 176.634 144.031 172.978 149.441C169.099 155.182 165.225 160.917 161.31 166.633C157.13 172.74 153.145 179.01 147.955 184.259C143.299 188.967 137.91 192.884 132.036 195.54C126.747 197.932 121.356 198.788 115.819 199.839C110.699 200.808 105.883 202.545 101.701 206.135C99.0247 208.43 96.703 211.241 94.3825 213.923C92.2256 216.414 90.1237 218.952 88.0571 221.524C83.8398 226.776 79.7856 232.173 75.7872 237.606C67.5032 248.864 59.4249 260.29 50.6654 271.158C48.4494 273.909 46.1894 276.617 43.8864 279.287C43.7762 279.415 43.9461 279.589 44.0563 279.462C62.0303 258.632 76.5519 234.886 94.5524 214.098C99.1137 208.83 103.638 203.8 110.149 201.538C115.251 199.769 120.595 199.547 125.756 198.112C137.322 194.895 147.419 186.699 154.737 176.612C158.967 170.783 162.881 164.703 167.051 158.822C170.888 153.414 174.062 147.45 178.577 142.589C183.525 137.266 189.782 134.143 196.522 132.885C202.608 131.748 208.725 131.952 214.819 131.643C224.982 131.126 235.29 128.438 244.848 124.16C253.832 120.139 262.816 114.365 268.772 105.876C271.96 101.332 274.293 96.0957 276.566 91.042C279.067 85.4832 281.444 79.8651 284.258 74.4557C287.433 68.3529 291.161 62.485 295.64 57.3035C300.052 52.2003 305.161 47.8118 310.574 43.9861C312.917 42.3289 315.326 40.781 317.769 39.3037C317.912 39.2183 317.794 38.9987 317.654 39.0864Z" fill="white"/>
<path d="M319.362 37.7716C308.251 43.8267 298.27 51.9228 291.008 62.871C284.116 73.2573 280.395 85.0344 275.41 96.355C273.161 101.463 270.64 106.34 266.9 110.482C263.238 114.535 258.865 117.828 254.271 120.532C244.821 126.091 234.202 129.502 223.714 130.888C212.291 132.399 200.396 129.469 189.276 134.339C183.544 136.85 179.006 141.299 175.364 146.589C173.444 149.378 171.738 152.313 169.959 155.197C168.178 158.089 166.235 160.867 164.369 163.699C160.11 170.15 156.154 176.995 151.038 182.773C146.664 187.71 141.503 191.884 135.76 194.776C130.056 197.649 124.228 198.78 118.109 199.327C112.895 199.792 107.718 200.497 103.05 203.543C100.32 205.325 98.0573 207.723 95.8053 210.124C93.4959 212.586 91.2523 215.112 89.0619 217.691C84.6327 222.89 80.4237 228.289 76.3026 233.76C67.7381 245.133 59.5424 256.804 50.6884 267.943C48.4189 270.799 46.1064 273.615 43.746 276.387C43.639 276.514 43.8058 276.69 43.9159 276.562C62.0939 255.197 76.7932 230.741 95.9745 210.295C98.4642 207.64 100.982 205.019 104.079 203.192C106.823 201.575 109.805 200.666 112.837 200.179C118.212 199.314 123.588 199.397 128.896 197.791C140.753 194.209 150.258 185.457 157.339 174.826C161.442 168.662 165.657 162.522 169.588 156.244C173.237 150.414 176.537 144.191 181.652 139.573C192.404 129.862 205.778 132.187 218.322 131.634C228.266 131.195 238.469 128.463 247.78 124.185C256.712 120.084 265.637 114.079 271.16 105.274C274.09 100.603 276.175 95.3331 278.22 90.2277C280.517 84.5002 282.708 78.7291 285.42 73.1779C288.452 66.9755 292.122 61.0293 296.608 55.8261C301.14 50.5693 306.47 46.1284 312.144 42.3784C314.529 40.8002 316.981 39.3521 319.477 37.9922C319.622 37.91 319.504 37.6938 319.362 37.7716Z" fill="white"/>
<path d="M321.061 36.4584C309.671 42.0328 299.44 50.0766 292.195 61.1351C285.403 71.4994 282.036 83.2526 277.649 94.7038C275.567 100.144 273.247 105.499 269.509 109.999C266.021 114.198 261.746 117.614 257.211 120.408C247.735 126.242 236.916 129.717 226.292 131.034C214.929 132.441 203.313 129.047 192.083 132.821C186.138 134.82 181.157 138.924 177.36 144.213C173.471 149.624 170.46 155.701 166.873 161.324C162.694 167.878 158.867 174.848 154.094 180.969C149.834 186.436 144.635 191.141 138.697 194.378C133.036 197.461 127.019 198.989 120.834 199.172C115.572 199.325 110.219 198.966 105.113 201.104C99.3053 203.535 94.7776 208.891 90.4937 213.578C85.7997 218.716 81.3799 224.126 77.0941 229.644C68.1462 241.172 59.7637 253.172 50.7537 264.653C48.4125 267.637 46.0282 270.582 43.5969 273.486C43.4899 273.612 43.6566 273.788 43.7668 273.66C53.3211 262.264 61.9956 250.128 70.9076 238.194C79.2528 227.019 87.8779 215.817 97.9373 206.264C103.059 201.401 108.856 199.687 115.384 199.513C120.957 199.365 126.332 199.402 131.816 197.62C137.298 195.841 142.434 192.821 146.929 188.925C152.234 184.324 156.216 178.671 159.996 172.705C163.931 166.496 168.025 160.34 171.677 153.953C175.317 147.591 178.97 141.074 184.93 136.77C196.044 128.74 208.937 132.191 221.023 131.732C231.104 131.351 241.47 128.596 250.867 124.126C259.68 119.933 268.429 113.694 273.473 104.67C276.226 99.7401 278.119 94.2761 279.996 88.9764C282.091 83.0618 284.125 77.1176 286.781 71.4172C289.708 65.1345 293.373 59.1286 297.915 53.9408C302.415 48.8023 307.727 44.5101 313.395 40.9721C315.922 39.3943 318.523 37.9761 321.177 36.6788C321.326 36.6023 321.204 36.3872 321.061 36.4584Z" fill="white"/>
<path d="M322.796 35.1312C311.317 40.1572 300.921 47.9794 293.693 58.919C286.782 69.3778 283.661 81.2728 279.778 93.0085C278.011 98.3485 276.092 103.815 272.829 108.449C269.647 112.975 265.482 116.683 261.008 119.692C251.777 125.894 241.008 129.532 230.448 131.011C225.229 131.743 220.117 131.717 214.949 131.288C208.97 130.794 202.907 130.09 196.848 131.133C190.942 132.151 185.525 135.013 181.225 139.655C176.666 144.574 173.886 150.852 170.6 156.663C166.805 163.369 162.693 169.966 158.604 176.488C154.689 182.735 149.868 188.361 143.901 192.482C138.48 196.225 132.351 198.527 126.069 199.211C120.796 199.784 115.546 199.192 110.276 199.849C107.631 200.179 105.014 200.849 102.496 201.904C101.207 202.445 99.9537 203.077 98.7311 203.783C97.013 204.777 96.0979 206.077 94.8431 207.659C90.1871 213.528 85.4966 219.365 80.781 225.183C70.9762 237.278 61.0711 249.278 51.1541 261.272C48.5857 264.374 46.0173 267.476 43.4528 270.581C43.3466 270.711 43.5165 270.885 43.6227 270.755C53.6832 258.602 63.7444 246.453 73.7313 234.232C78.5271 228.363 83.3049 222.476 88.0529 216.564C90.3818 213.663 92.7052 210.753 95.02 207.835C96.3651 206.142 97.4943 204.752 99.3684 203.711C100.934 202.841 102.557 202.096 104.223 201.511C109.564 199.641 114.964 199.825 120.397 199.769C125.973 199.709 131.484 198.945 136.812 196.684C142.298 194.354 147.278 190.707 151.494 186.249C156.546 180.901 160.209 174.422 164.003 168.108C165.994 164.793 168.036 161.505 170.011 158.181C171.732 155.286 173.24 152.266 174.881 149.323C178.59 142.673 183.201 136.582 190.068 133.451C201.405 128.28 213.351 132.477 224.899 131.822C234.764 131.263 244.814 128.582 253.962 124.05C262.778 119.684 271.438 113.077 275.935 103.651C281.022 92.9836 283.096 81.1981 287.81 70.3731C290.585 64.0007 294.174 57.9085 298.701 52.6747C303.247 47.4206 308.695 43.0862 314.529 39.6295C317.23 38.0276 320.018 36.6203 322.863 35.3745C322.998 35.3129 322.944 35.0655 322.796 35.1312Z" fill="white"/>
<path d="M324.494 33.8174C312.59 38.4533 301.808 46.3871 294.543 57.6732C287.669 68.3494 284.937 80.4773 281.459 92.4657C279.864 97.9595 278.121 103.621 274.933 108.438C271.829 113.124 267.652 116.965 263.132 120.048C253.837 126.392 242.884 130.014 232.2 131.349C226.802 132.023 221.552 131.865 216.241 131.239C210.503 130.562 204.709 129.676 198.844 130.334C193.01 130.99 187.492 133.411 183.059 137.797C178.122 142.682 175.27 149.168 172.102 155.295C168.557 162.147 164.489 168.812 160.539 175.428C156.613 182.001 152.056 188.026 145.932 192.49C140.554 196.408 134.368 198.841 128.026 199.499C122.668 200.053 117.444 199.142 112.127 199.133C109.67 199.126 107.196 199.355 104.765 199.958C103.341 200.31 101.939 200.784 100.572 201.368C99.2794 201.917 97.6234 202.53 96.5121 203.451C95.2027 204.532 94.0792 206.385 92.9769 207.713C91.7892 209.142 90.5991 210.575 89.4114 212.005C86.87 215.058 84.3255 218.113 81.7841 221.166C71.4966 233.515 61.2052 245.862 50.9999 258.287C48.4318 261.416 45.8652 264.552 43.3089 267.688C43.2028 267.818 43.3726 267.992 43.4788 267.863C53.7807 255.223 64.186 242.677 74.6132 230.152C79.5371 224.241 84.4649 218.333 89.3841 212.416C90.5749 210.986 91.7626 209.556 92.9527 208.123C94.2306 206.583 95.5358 204.456 97.1756 203.346C99.8037 201.564 103.175 200.49 106.168 199.914C111.549 198.875 116.852 199.743 122.182 199.925C127.866 200.119 133.555 199.242 138.963 196.831C144.568 194.333 149.577 190.392 153.716 185.621C158.603 179.994 162.15 173.24 165.863 166.775C167.758 163.475 169.756 160.223 171.554 156.87C173.157 153.88 174.6 150.804 176.218 147.824C179.867 141.1 184.724 135.119 191.733 132.329C203.203 127.762 214.945 132.481 226.475 132.08C236.463 131.728 246.711 129.1 255.979 124.509C264.963 120.059 273.718 113.191 277.954 103.4C282.639 92.5638 284.265 80.7513 288.64 69.7932C291.32 63.0761 294.952 56.6584 299.661 51.2018C304.332 45.7891 310.005 41.4079 316.092 38.0298C318.837 36.5058 321.671 35.1971 324.563 34.0705C324.701 34.0046 324.647 33.7573 324.494 33.8174Z" fill="white"/>
<path d="M326.198 32.5022C313.96 36.7152 302.828 44.6851 295.533 56.2204C288.625 67.1396 286.241 79.5384 283.157 91.8108C281.736 97.4757 280.172 103.36 277.049 108.382C274.092 113.136 270.014 117.049 265.556 120.188C256.292 126.711 245.234 130.359 234.495 131.634C229.181 132.267 223.995 132.13 218.785 131.377C213.06 130.551 207.344 129.376 201.476 129.591C195.686 129.799 189.989 131.603 185.309 135.65C179.874 140.348 176.84 146.927 173.775 153.36C170.424 160.393 166.471 167.184 162.63 173.953C158.739 180.805 154.491 187.286 148.348 192.159C143.001 196.402 136.725 199.085 130.241 199.827C124.599 200.474 119.205 199.336 113.688 198.756C108.351 198.192 103.078 198.681 97.9615 201.063C96.5447 201.723 95.7311 202.296 94.6719 203.514C93.3223 205.066 91.9759 206.617 90.6295 208.167C88.0315 211.164 85.4351 214.167 82.8465 217.175C72.1036 229.659 61.4775 242.251 51.0535 255.024C48.4068 258.266 45.7766 261.52 43.1596 264.787C43.0567 264.916 43.2233 265.091 43.3294 264.961C53.7308 251.987 64.3577 239.209 75.1256 226.568C80.3233 220.465 85.5523 214.394 90.8 208.345C92.0117 206.947 93.2265 205.549 94.442 204.153C96.0094 202.351 97.6007 201.416 99.7391 200.58C102.571 199.473 105.515 198.881 108.468 198.786C113.815 198.616 118.97 199.969 124.263 200.255C129.945 200.562 135.731 199.526 141.088 196.992C146.808 194.288 151.815 190.021 155.865 184.928C160.653 178.908 164.147 171.786 167.856 165.049C169.691 161.714 171.602 158.424 173.262 154.997C174.833 151.754 176.306 148.458 178.061 145.307C181.716 138.746 186.978 133.275 193.951 131.083C205.619 127.414 217.184 132.654 228.793 132.328C238.878 132.048 249.257 129.41 258.58 124.669C267.406 120.179 275.875 113.247 279.817 103.492C284.429 92.0839 285.513 79.6859 289.882 68.1868C292.484 61.3425 296.149 54.8106 300.966 49.3281C305.676 43.9687 311.411 39.6855 317.563 36.4814C320.385 35.0108 323.294 33.7838 326.261 32.7605C326.406 32.696 326.349 32.4498 326.198 32.5022Z" fill="white"/>
<path d="M327.906 31.1886C315.362 34.974 303.883 42.9615 296.546 54.7315C289.558 65.9403 287.531 78.6666 284.821 91.2614C283.567 97.0742 282.191 103.149 279.14 108.358C276.301 113.202 272.281 117.215 267.846 120.417C258.541 127.133 247.3 130.804 236.436 131.982C231.014 132.572 225.723 132.364 220.439 131.448C214.782 130.466 209.169 129.1 203.359 129.003C197.461 128.904 191.545 130.387 186.641 134.389C181.344 138.716 178.281 144.846 175.494 151.046C172.328 158.091 168.7 164.88 165.044 171.681C161.225 178.789 157.302 185.801 151.325 191.222C146.009 196.042 139.538 199.215 132.753 200.167C126.825 200.998 121.25 199.827 115.562 198.711C110.423 197.702 105.224 197.243 99.978 198.855C98.5833 199.284 97.079 199.785 95.7803 200.526C94.3109 201.368 93.1041 203.138 91.9348 204.422C89.2733 207.347 86.6212 210.282 83.9824 213.231C72.7429 225.804 61.7547 238.624 51.1065 251.751C48.382 255.108 45.6857 258.485 43.0075 261.88C42.9053 262.012 43.0719 262.187 43.1772 262.054C53.8129 248.565 64.816 235.398 76.1032 222.502C81.3781 216.475 86.7147 210.509 92.1038 204.593C93.5824 202.969 94.9074 201.225 96.8789 200.287C98.4056 199.561 100.051 199.036 101.668 198.654C104.656 197.948 107.68 197.866 110.654 198.185C115.936 198.752 120.995 200.4 126.327 200.697C132.096 201.018 138.024 199.792 143.389 197.045C156.85 190.152 163.273 175.552 170.177 162.501C171.891 159.262 173.527 156.027 175.025 152.679C176.46 149.47 177.878 146.236 179.641 143.193C183.383 136.737 189 131.686 195.982 129.999C207.703 127.168 218.959 132.745 230.544 132.6C240.699 132.473 251.194 129.89 260.583 125.108C269.583 120.522 278.147 113.311 281.818 103.213C286.084 91.4842 286.727 78.9093 290.894 67.1346C293.378 60.1123 297.026 53.412 301.925 47.8313C306.703 42.381 312.585 38.0908 318.895 34.9883C321.834 33.5404 324.868 32.3688 327.96 31.4357C328.116 31.3888 328.059 31.1427 327.906 31.1886Z" fill="white"/>
<path d="M329.606 29.8736C316.586 33.2828 304.62 41.4602 297.259 53.7197C290.37 65.1956 288.761 78.1417 286.426 90.9412C285.351 96.8282 284.157 102.997 281.218 108.33C278.463 113.328 274.435 117.476 269.95 120.766C260.529 127.677 249.02 131.352 237.966 132.38C232.62 132.878 227.396 132.603 222.215 131.57C216.416 130.412 210.698 128.781 204.732 128.457C198.896 128.14 192.952 129.318 187.969 133.15C182.423 137.411 179.265 143.665 176.544 150.056C173.424 157.372 169.902 164.435 166.257 171.505C162.456 178.876 158.56 186.236 152.437 191.854C147.113 196.738 140.606 199.893 133.774 200.741C127.777 201.488 122.192 200.194 116.543 198.699C111.448 197.349 106.272 196.265 100.881 197.349C99.4496 197.635 98.0395 198.056 96.6584 198.587C96.0367 198.827 95.2145 199.068 94.6429 199.45C94.0189 199.871 93.4809 200.648 92.9488 201.2C90.1149 204.141 87.3068 207.104 84.5214 210.092C72.8563 222.604 61.594 235.533 50.8243 248.898C48.1392 252.231 45.4879 255.592 42.8655 258.975C42.7634 259.106 42.9331 259.281 43.0353 259.149C53.7251 245.351 64.9413 232.004 76.5982 219.089C82.0137 213.089 87.5224 207.182 93.1218 201.374C97.7637 196.559 105.642 196.631 111.367 197.732C116.507 198.721 121.417 200.582 126.669 201.095C132.529 201.669 138.636 200.604 144.154 197.878C158.214 190.935 164.586 175.339 171.469 161.767C174.72 155.356 177.009 148.424 180.584 142.191C184.338 135.643 190.142 130.646 197.226 129.184C209.035 126.745 220.127 132.753 231.735 132.896C242.2 133.025 253.121 130.439 262.795 125.456C271.836 120.798 280.341 113.401 283.76 103.132C287.753 91.1294 287.936 78.3729 291.845 66.3302C294.18 59.1403 297.771 52.2709 302.709 46.5596C307.754 40.7221 314.109 36.2346 320.913 33.185C323.764 31.9069 326.694 30.8926 329.672 30.1133C329.817 30.0771 329.76 29.8311 329.606 29.8736Z" fill="white"/>
<path d="M331.305 28.5533C317.994 31.537 305.675 39.7165 298.263 52.2276C291.323 63.938 290.049 77.151 288.1 90.1838C287.191 96.2686 286.186 102.691 283.301 108.265C280.653 113.386 276.659 117.658 272.164 121.029C262.7 128.127 251.001 131.82 239.826 132.757C234.458 133.205 229.192 132.887 224.018 131.733C218.133 130.421 212.369 128.544 206.316 127.959C200.608 127.408 194.704 128.199 189.63 131.703C183.881 135.672 180.508 141.887 177.859 148.309C176.432 151.766 175.173 155.299 173.578 158.691C171.691 162.702 169.729 166.684 167.769 170.659C164.06 178.188 160.316 185.841 154.31 191.751C148.99 196.984 142.326 200.407 135.276 201.29C129.023 202.074 123.249 200.683 117.468 198.805C112.461 197.181 107.376 195.547 101.945 196.033C100.582 196.156 99.2196 196.399 97.8774 196.759C96.6537 197.088 95.0695 197.416 93.9765 198.147C92.4564 199.163 91.0626 201.002 89.7467 202.312C88.2462 203.809 86.7574 205.312 85.2748 206.828C73.2375 219.128 61.7629 232.05 50.9391 245.533C48.1484 249.008 45.4047 252.524 42.7065 256.075C42.6044 256.207 42.7741 256.381 42.8762 256.249C53.6036 242.145 65.0431 228.632 77.0872 215.744C79.9118 212.724 82.7708 209.734 85.6595 206.784C87.0019 205.413 88.3506 204.054 89.7071 202.699C91.1551 201.255 92.795 199.068 94.5888 198.146C100.174 195.277 106.883 195.96 112.416 197.502C117.542 198.933 122.472 201.026 127.834 201.612C133.933 202.277 140.31 201.15 146.002 198.169C160.058 190.802 166.171 174.453 172.889 160.651C176.068 154.125 178.06 147.003 181.752 140.738C185.675 134.077 191.859 129.301 199.134 128.289C211.044 126.632 221.92 132.943 233.629 133.209C244.109 133.445 255.082 130.917 264.773 125.916C274.024 121.143 282.567 113.465 285.73 102.852C289.449 90.3821 289.147 77.2696 293.004 64.8044C295.247 57.5482 298.827 50.6216 303.808 44.8985C308.872 39.078 315.285 34.6579 322.137 31.7489C325.139 30.4756 328.223 29.4998 331.358 28.7969C331.517 28.7632 331.46 28.5173 331.305 28.5533Z" fill="white"/>
<path d="M333.008 27.2306C319.333 29.8139 306.583 38.0766 299.133 50.9687C292.217 62.9345 291.313 76.3856 289.733 89.6218C288.991 95.851 288.172 102.454 285.368 108.226C282.804 113.497 278.81 117.909 274.262 121.372C264.791 128.59 252.984 132.278 241.748 133.132C236.232 133.551 230.821 133.164 225.54 131.851C219.597 130.375 213.808 128.282 207.69 127.472C202.032 126.721 196.082 127.221 190.916 130.556C185.046 134.348 181.523 140.557 178.939 147.018C177.533 150.53 176.338 154.122 174.864 157.608C173.166 161.623 171.229 165.561 169.375 169.507C165.703 177.32 162.043 185.444 156.044 191.716C150.771 197.228 144.061 200.89 136.863 201.848C130.431 202.704 124.471 201.283 118.617 199.088C113.575 197.197 108.527 195.044 102.998 194.939C100.091 194.885 96.6537 195.276 93.8983 196.582C92.5618 197.215 91.4653 198.545 90.3581 199.58C88.8435 200.999 87.339 202.433 85.8471 203.877C73.3388 215.994 61.5708 228.984 50.6409 242.684C47.8889 246.131 45.1964 249.629 42.5572 253.167C42.459 253.3 42.6255 253.476 42.7269 253.341C53.3483 239.103 64.8755 225.588 77.1639 212.904C80.1391 209.833 83.1635 206.812 86.2309 203.844C87.6535 202.469 89.0832 201.108 90.5246 199.755C92.0869 198.292 93.3877 196.962 95.4067 196.324C101.552 194.381 107.494 195.325 113.236 197.349C118.535 199.22 123.672 201.622 129.363 202.207C135.518 202.84 141.899 201.69 147.6 198.577C153.778 195.203 158.767 189.74 162.478 183.58C167.063 175.979 170.552 167.587 174.263 159.532C177.328 152.876 179.053 145.586 182.911 139.298C187.012 132.617 193.398 128.144 200.767 127.5C212.73 126.45 223.406 133.066 235.177 133.519C245.849 133.931 257.098 131.414 266.96 126.265C276.33 121.373 284.835 113.425 287.701 102.564C291.075 89.7873 290.365 76.5054 294.017 63.7552C296.144 56.3387 299.699 49.2286 304.765 43.4064C309.967 37.4271 316.607 32.9635 323.707 30.1654C326.756 28.9621 329.884 28.0746 333.055 27.4762C333.222 27.447 333.165 27.2012 333.008 27.2306Z" fill="white"/>
<path d="M334.742 25.9026C320.773 28.073 307.626 36.3238 300.118 49.5115C293.107 61.8203 292.586 75.6358 291.348 89.1823C290.759 95.6415 290.105 102.498 287.274 108.516C284.749 113.878 280.738 118.372 276.148 121.883C266.577 129.2 254.572 132.856 243.206 133.555C237.713 133.893 232.322 133.426 227.094 132.005C221.132 130.381 215.361 128.1 209.236 127.046C203.695 126.092 197.764 126.233 192.521 129.258C186.455 132.756 182.661 138.965 180.09 145.473C178.679 149.038 177.531 152.695 176.172 156.279C174.586 160.465 172.637 164.538 170.802 168.621C167.151 176.752 163.54 185.332 157.488 191.95C152.243 197.684 145.457 201.524 138.126 202.487C131.385 203.368 125.157 201.784 119.129 199.231C114.085 197.092 109.085 194.575 103.516 194.015C100.748 193.736 97.9272 193.968 95.1678 194.697C93.581 195.114 92.6981 195.502 91.424 196.607C89.8223 198.001 88.2323 199.416 86.6596 200.847C73.7316 212.606 61.725 225.549 50.7475 239.336C47.8955 242.92 45.1162 246.568 42.4075 250.271C42.3093 250.405 42.479 250.579 42.5771 250.445C53.2069 235.907 64.9705 222.254 77.6878 209.69C80.6787 206.734 83.7251 203.841 86.8285 201.018C88.2605 199.714 89.7034 198.427 91.1597 197.154C92.8655 195.666 94.5061 195.041 96.6105 194.611C102.891 193.329 108.759 195.075 114.361 197.449C119.454 199.608 124.475 202.071 130.066 202.755C136.371 203.526 142.931 202.452 148.783 199.22C155.085 195.741 160.095 190.041 163.749 183.666C168.278 175.761 171.908 167.098 175.454 158.712C178.338 151.892 179.932 144.425 183.935 138.11C188.109 131.528 194.462 127.247 201.791 126.802C213.883 126.07 224.468 133.089 236.332 133.821C247.116 134.486 258.564 132.063 268.581 126.916C277.962 122.093 286.569 114.142 289.426 103.278C292.873 90.1547 291.536 76.5066 294.882 63.3424C296.82 55.7153 300.272 48.3876 305.359 42.3563C310.567 36.1873 317.334 31.6349 324.577 28.8551C327.887 27.585 331.289 26.6906 334.73 26.1567C334.888 26.1338 334.899 25.8765 334.742 25.9026Z" fill="white"/>
<path d="M336.445 24.5781C322.222 26.3367 308.692 34.5607 301.123 48.0132C293.975 60.7171 293.862 74.9515 292.96 88.8525C292.534 95.383 292.058 102.324 289.339 108.472C286.905 113.983 282.89 118.617 278.248 122.221C268.56 129.742 256.284 133.407 244.729 133.97C239.154 134.243 233.696 133.675 228.431 132.104C222.45 130.318 216.684 127.864 210.534 126.601C205.006 125.467 199.042 125.366 193.689 128.238C187.49 131.567 183.541 137.863 181.007 144.426C179.557 148.186 178.427 152.047 177.087 155.841C175.624 159.982 173.781 164.013 172.045 168.052C168.462 176.394 164.928 185.283 158.909 192.17C153.64 198.198 146.698 202.238 139.143 203.168C132.233 204.019 125.853 202.305 119.775 199.473C114.642 197.082 109.631 194.177 103.964 193.173C101.315 192.705 98.5861 192.684 95.8775 193.161C94.4004 193.42 92.6891 193.666 91.458 194.662C89.9028 195.918 88.364 197.2 86.84 198.502C73.4035 209.973 61.0847 222.991 50.0387 237.01C47.3592 240.41 44.7627 243.875 42.2382 247.401C42.1408 247.538 42.348 247.654 42.4462 247.52C53.1732 232.538 65.3327 218.613 78.669 206.139C81.8091 203.2 85.0195 200.343 88.2999 197.583C89.788 196.332 91.3584 194.688 93.1589 194.064C94.8874 193.467 96.7747 193.203 98.5533 193.1C104.801 192.734 110.419 195.225 115.825 197.855C120.967 200.359 126.108 202.846 131.913 203.461C138.419 204.151 145.136 202.862 151.029 199.242C157.321 195.376 162.133 189.298 165.59 182.64C169.725 174.669 173.42 166.207 176.622 157.822C179.401 150.546 180.968 142.485 185.567 136.043C190.065 129.739 196.384 126.108 203.655 126.094C215.744 126.073 226.132 133.29 238.07 134.156C248.99 134.95 260.64 132.54 270.774 127.264C280.35 122.281 288.94 113.991 291.458 102.789C294.503 89.2416 292.771 75.3529 296.037 61.8046C297.868 54.2077 301.256 46.9035 306.294 40.9009C311.609 34.5695 318.595 29.9758 326.057 27.2953C329.447 26.0773 332.924 25.2643 336.435 24.831C336.592 24.8158 336.6 24.5595 336.445 24.5781Z" fill="white"/>
<path d="M338.143 23.2506C323.408 24.6326 309.272 33.1055 301.734 47.222C294.779 60.2461 295.139 74.6952 294.561 88.7536C294.288 95.3976 293.949 102.461 291.252 108.751C288.823 114.412 284.732 119.167 279.974 122.839C270.097 130.458 257.534 134.06 245.793 134.398C240.125 134.56 234.634 133.816 229.335 132.067C223.286 130.072 217.454 127.422 211.197 126.028C205.539 124.769 199.393 124.627 193.938 127.729C187.561 131.353 183.764 138.062 181.34 144.932C180.006 148.717 178.949 152.587 177.655 156.384C176.134 160.847 174.206 165.21 172.396 169.567C168.822 178.16 165.214 187.253 158.783 194.101C153.216 200.026 145.971 203.603 138.298 204.018C131.326 204.393 125.299 202.232 119.455 198.851C114.662 196.077 109.993 192.752 104.57 191.318C98.7263 189.77 93.4256 191.499 88.0689 194.685C72.7526 203.799 60.7894 218.729 50.1389 233.22C47.4051 236.939 44.7339 240.708 42.0878 244.497C41.9904 244.634 42.2015 244.752 42.2958 244.616C53.2626 228.925 64.8132 212.746 79.6797 200.845C85.42 196.251 92.5221 190.932 99.8084 190.931C105.714 190.928 110.908 194.055 115.766 196.966C120.432 199.764 125.164 202.733 130.604 203.757C137.196 204.997 144.226 204.227 150.476 200.879C157.148 197.307 162.308 191.165 165.934 184.364C168.246 180.028 170.182 175.466 172.082 170.939C173.833 166.767 175.627 162.588 177.211 158.353C179.983 150.934 181.334 142.682 185.801 135.986C190.175 129.433 196.546 125.458 203.962 125.429C216.382 125.382 226.855 133.248 239.03 134.442C250.112 135.527 262.043 133.213 272.39 127.913C282.125 122.923 290.859 114.497 293.296 103.104C296.261 89.25 294.001 75.1258 296.958 61.2389C298.646 53.3109 302.031 45.6589 307.258 39.4108C312.642 32.9748 319.781 28.3722 327.387 25.7938C330.905 24.6018 334.508 23.8504 338.135 23.51C338.291 23.4915 338.299 23.2353 338.143 23.2506Z" fill="white"/>
<path d="M339.845 21.9228C324.772 22.9072 310.193 31.4323 302.616 45.9568C295.605 59.3987 296.452 74.2722 296.18 88.6592C296.055 95.3057 295.863 102.382 293.297 108.736C290.932 114.593 286.781 119.524 281.912 123.301C271.94 131.036 259.179 134.612 247.31 134.812C241.557 134.91 236.002 134.065 230.664 132.171C224.589 130.02 218.756 127.199 212.48 125.601C206.912 124.186 200.795 123.772 195.279 126.618C188.856 129.933 184.819 136.557 182.417 143.355C181.009 147.334 179.966 151.42 178.716 155.447C177.415 159.623 175.715 163.69 174.108 167.765C170.547 176.786 167.015 186.534 160.575 193.92C155.075 200.23 147.725 204.181 139.82 204.688C132.652 205.148 126.336 202.986 120.398 199.376C115.56 196.435 110.979 192.883 105.633 190.901C100.179 188.876 94.7987 189.423 89.3701 192.192C73.291 200.392 60.704 215.605 49.916 230.293C47.1883 234.005 44.5436 237.782 41.9411 241.594C41.8477 241.733 42.0548 241.849 42.149 241.714C53.1073 225.665 65.1501 209.104 80.7958 197.78C86.7557 193.464 93.7265 189.051 100.963 189.984C106.791 190.734 111.793 194.178 116.597 197.282C121.537 200.475 126.537 203.558 132.441 204.548C139.091 205.662 146.105 204.743 152.291 201.167C158.968 197.306 163.973 190.868 167.444 183.845C169.577 179.534 171.432 175.076 173.224 170.618C174.974 166.268 176.816 161.903 178.314 157.462C180.884 149.854 182.212 141.416 186.891 134.689C191.437 128.15 197.905 124.486 205.363 124.76C217.988 125.224 228.448 133.505 240.899 134.802C251.953 135.952 263.865 133.712 274.207 128.443C284.159 123.371 292.988 114.693 295.227 103.009C297.952 88.7911 295.228 74.4316 297.993 60.1827C299.525 52.2873 302.752 44.6537 307.849 38.3655C313.342 31.5871 320.785 26.818 328.715 24.28C332.36 23.1141 336.089 22.4243 339.833 22.1799C339.994 22.1701 340.002 21.9141 339.845 21.9228Z" fill="white"/>
<path d="M341.54 20.5946C326.316 21.1778 311.387 29.5595 303.715 44.2572C296.526 58.036 297.73 73.2951 297.807 87.9753C297.843 94.7994 297.838 102.094 295.345 108.682C293.071 114.683 288.925 119.762 284.006 123.635C273.918 131.576 260.875 135.158 248.825 135.227C242.986 135.261 237.365 134.314 231.985 132.281C225.881 129.974 220.047 126.986 213.747 125.193C208.196 123.612 202.029 122.947 196.405 125.647C189.874 128.784 185.665 135.466 183.287 142.302C181.893 146.307 180.897 150.419 179.735 154.486C178.486 158.866 176.814 163.111 175.202 167.379C171.675 176.717 168.188 186.869 161.619 194.54C156.15 200.932 148.779 204.931 140.834 205.409C133.577 205.844 127.088 203.62 121.136 199.847C116.117 196.663 111.459 192.765 105.991 190.369C100.768 188.081 95.2637 187.884 89.756 190.336C73.4927 197.566 60.5961 212.571 49.9216 227.045C47.1124 230.856 44.4136 234.747 41.7846 238.689C41.6911 238.829 41.899 238.948 41.9924 238.809C52.7571 222.66 65.1171 206.063 81.1626 195.394C87.3309 191.294 94.2104 187.622 101.377 189.122C107.254 190.352 112.216 194.092 117.064 197.433C121.989 200.824 126.998 204.008 132.97 205.133C139.727 206.406 146.914 205.592 153.24 201.941C160.155 197.952 165.197 191.185 168.647 183.872C170.742 179.43 172.586 174.873 174.35 170.295C176.038 165.914 177.829 161.511 179.233 157.035C181.778 148.914 183.073 140.005 188.28 132.998C192.902 126.777 199.352 123.627 206.546 124.116C219.223 124.974 229.564 133.551 242.079 135.1C262.199 137.593 292.883 128.018 297.163 102.92C299.643 88.3886 296.495 73.8481 299.012 59.2841C300.441 51.01 303.755 42.9787 309.157 36.4607C314.777 29.6791 322.386 25.0089 330.441 22.6495C334.088 21.5818 337.813 20.9954 341.54 20.8551C341.69 20.8451 341.699 20.5892 341.54 20.5946Z" fill="white"/>
<path d="M343.322 19.2789C327.69 19.4765 312.209 27.9922 304.545 43.2601C297.435 57.428 299.129 73.0141 299.512 87.9363C299.69 94.8744 299.819 102.292 297.339 109.033C295.1 115.122 290.935 120.282 285.962 124.208C275.862 132.18 262.777 135.73 250.707 135.735C244.8 135.739 239.091 134.753 233.675 132.611C227.491 130.164 221.621 126.98 215.265 124.951C209.574 123.133 203.16 122.167 197.289 124.902C190.798 127.925 186.508 134.567 184.173 141.342C182.788 145.362 181.833 149.504 180.756 153.604C179.569 158.12 177.976 162.488 176.388 166.891C172.922 176.492 169.516 186.985 162.955 194.972C157.458 201.659 149.91 205.867 141.733 206.283C134.349 206.661 127.699 204.33 121.711 200.374C112.439 194.246 102.868 184.244 90.4493 188.603C82.6643 191.337 75.5015 196.588 69.2381 202.228C61.9378 208.804 55.4903 216.417 49.6088 224.389C46.8296 228.155 44.1789 232.021 41.6253 235.954C41.5326 236.097 41.7437 236.215 41.8332 236.074C52.3766 219.841 65.0627 203.262 81.4601 193.294C88.0016 189.319 94.9289 186.405 102.133 188.589C107.897 190.338 112.723 194.257 117.53 197.756C122.612 201.455 127.793 204.778 134.061 205.977C140.934 207.293 148.243 206.43 154.631 202.6C161.816 198.294 166.715 191.051 170.154 183.35C172.187 178.801 173.987 174.154 175.702 169.482C177.314 165.097 179.026 160.701 180.302 156.213C182.686 147.822 184.004 138.727 189.538 131.648C194.389 125.444 201.08 122.772 208.286 123.629C220.889 125.13 231.076 133.819 243.63 135.532C264.006 138.313 295.294 128.572 299.159 102.892C301.378 88.1396 297.876 73.5061 300.054 58.7213C301.318 50.1326 304.607 41.7559 310.191 34.9916C315.829 28.1643 323.494 23.5103 331.603 21.2208C335.46 20.1311 339.396 19.589 343.321 19.5394C343.469 19.5338 343.477 19.2745 343.322 19.2789Z" fill="white"/>
<path d="M345.114 17.9616C329.08 17.7713 313.042 26.4129 305.397 42.2557C298.372 56.8149 300.556 72.7326 301.24 87.8963C301.555 94.9641 301.813 102.515 299.334 109.419C297.104 115.627 292.886 120.886 287.823 124.863C277.534 132.951 264.159 136.448 251.902 136.242C245.759 136.138 239.917 134.921 234.35 132.528C228.265 129.908 222.457 126.653 216.16 124.516C210.466 122.586 204.002 121.485 198.07 124.209C191.492 127.225 187.166 134.025 184.889 140.892C183.489 145.112 182.569 149.451 181.504 153.749C180.386 158.261 178.862 162.633 177.338 167.033C174.005 176.658 170.72 187.167 164.365 195.284C158.935 202.222 151.341 206.66 143.022 207.146C135.392 207.593 128.401 205.118 122.277 200.924C112.921 194.515 103.406 183.704 90.6425 187.183C82.8222 189.316 75.4251 194.486 69.137 199.879C61.6756 206.28 55.1126 213.841 49.2207 221.832C46.4985 225.525 43.9212 229.329 41.4647 233.214C41.3752 233.356 41.5831 233.475 41.6726 233.334C51.9984 217.002 65.0708 200.435 81.8295 191.234C85.4571 189.243 89.4219 187.373 93.4457 186.883C96.5666 186.502 99.6469 186.985 102.514 188.058C108.3 190.223 113.114 194.393 117.985 198.108C123.141 202.041 128.428 205.482 134.874 206.786C141.859 208.197 149.324 207.36 155.807 203.39C163.143 198.893 167.946 191.384 171.36 183.453C173.317 178.91 175.043 174.279 176.687 169.618C178.29 165.073 179.985 160.515 181.213 155.862C183.478 147.261 184.729 137.964 190.443 130.762C195.359 124.567 202.09 122.063 209.278 123.075C222.019 124.87 232.171 133.931 244.859 135.908C265.431 139.115 297.368 129.364 301.106 103.232C302.159 95.8809 301.544 88.4031 301.103 81.1297C300.633 73.3693 300.156 65.5338 301.174 57.6943C302.288 49.1414 305.414 40.7795 310.862 33.9626C316.657 26.7097 324.733 21.8586 333.255 19.643C337.163 18.6245 341.144 18.17 345.101 18.2154C345.262 18.2198 345.267 17.9648 345.114 17.9616Z" fill="white"/>
<path d="M346.899 16.6434C330.471 16.0663 313.865 24.8229 306.252 41.2509C299.396 56.0481 301.944 72.1307 302.941 87.3768C303.414 94.5823 303.85 102.331 301.458 109.438C299.318 115.787 295.107 121.2 289.986 125.282C279.574 133.583 265.917 137.088 253.471 136.759C247.234 136.594 241.324 135.275 235.716 132.74C229.722 130.03 224.014 126.699 217.842 124.381C212.173 122.252 205.668 120.787 199.574 123.215C192.948 125.854 188.313 132.53 185.971 139.311C184.546 143.438 183.652 147.717 182.698 151.952C181.714 156.31 180.473 160.528 179.077 164.783C177.303 170.187 175.483 175.585 173.391 180.881C171.47 185.745 169.371 190.543 166.334 194.817C160.973 202.361 153.197 207.412 144.435 208.027C136.713 208.571 129.435 206.088 123.251 201.803C113.704 195.187 104.324 183.481 91.2536 185.793C83.3986 187.181 75.6973 192.219 69.3508 197.336C61.7902 203.433 55.1529 210.812 49.2848 218.692C46.4517 222.496 43.8042 226.44 41.3168 230.487C41.228 230.632 41.4359 230.752 41.5247 230.607C51.7546 213.953 65.5725 197.011 83.0867 188.869C86.5791 187.246 90.2657 185.872 94.0273 185.76C97.2762 185.665 100.415 186.471 103.305 187.804C109.244 190.549 114.138 195.138 119.263 199.156C124.417 203.193 129.759 206.473 136.262 207.741C143.438 209.141 151.101 208.11 157.624 203.784C164.902 198.957 169.408 191.228 172.73 183.163C174.859 177.996 176.701 172.721 178.463 167.423C179.93 163.008 181.406 158.615 182.46 154.091C184.455 145.536 185.857 136.494 191.673 129.503C196.726 123.427 203.57 121.359 210.667 122.608C223.485 124.861 233.6 134.214 246.451 136.358C267.278 139.829 299.791 129.907 303.123 103.213C304.065 95.6708 303.278 88.0353 302.681 80.6057C302.045 72.6964 301.398 64.6989 302.313 56.6759C303.304 47.9735 306.388 39.4368 311.913 32.4945C317.722 25.1931 325.85 20.3556 334.425 18.2C338.547 17.1649 342.742 16.7536 346.901 16.8997C347.048 16.9049 347.057 16.6488 346.899 16.6434Z" fill="white"/>
<path d="M348.683 15.3241C332.032 14.3646 314.981 23.0453 307.307 39.8211C300.327 55.0773 303.368 71.6318 304.668 87.2349C305.272 94.4635 305.846 102.237 303.583 109.423C301.55 115.887 297.386 121.431 292.244 125.619C281.785 134.131 267.916 137.673 255.344 137.29C249.032 137.097 243.028 135.744 237.385 133.099C231.188 130.197 225.333 126.596 218.969 124.057C213.362 121.82 206.908 120.166 200.779 122.37C194.2 124.734 189.389 131.24 186.997 137.883C185.459 142.157 184.57 146.618 183.643 151.032C182.698 155.53 181.559 159.896 180.179 164.295C178.492 169.683 176.758 175.061 174.771 180.357C172.916 185.288 170.92 190.206 168.011 194.623C162.839 202.478 155.121 208.018 146.199 208.875C138.262 209.639 130.563 207.133 124.211 202.711C114.298 195.81 104.99 183.183 91.4777 184.582C83.7168 185.384 75.8993 190.059 69.531 194.868C61.7243 200.761 54.886 208.115 48.9527 216.057C46.1481 219.81 43.5534 223.721 41.1477 227.757C41.0621 227.901 41.27 228.02 41.3556 227.876C46.6904 218.924 53.0023 210.532 60.3235 203.237C67.1857 196.396 75.0845 190.343 83.8891 186.888C87.3615 185.527 90.9409 184.555 94.5771 184.764C97.9587 184.96 101.156 186.093 104.083 187.685C109.914 190.858 114.747 195.608 119.9 199.77C125.211 204.06 130.804 207.422 137.592 208.697C144.977 210.086 152.818 208.853 159.384 204.16C166.753 198.891 171.005 190.707 174.275 182.322C177.947 172.9 181.318 163.061 183.431 153.209C185.307 144.448 186.755 135.261 192.896 128.256C198.152 122.261 205.168 120.682 212.198 122.196C225.111 124.982 235.244 134.642 248.349 136.867C269.384 140.434 302.226 130.323 305.124 103.188C305.94 95.5537 305.016 87.8688 304.27 80.3798C303.449 72.1125 302.589 63.7489 303.463 55.3285C304.389 46.4127 307.541 37.6512 313.281 30.6058C319.232 23.2954 327.537 18.5687 336.229 16.5928C340.354 15.6552 344.539 15.3423 348.679 15.5825C348.83 15.59 348.839 15.3338 348.683 15.3241Z" fill="white"/>
<path d="M350.465 14.0039C333.611 12.6762 316.128 21.2411 308.378 38.3418C301.372 53.8006 304.677 70.5594 306.315 86.2617C307.105 93.8405 307.924 102.026 305.637 109.624C303.673 116.152 299.549 121.783 294.399 126.03C283.822 134.763 269.668 138.316 256.905 137.808C250.565 137.556 244.536 136.137 238.897 133.399C232.599 130.338 226.679 126.536 220.227 123.792C214.665 121.43 208.256 119.56 202.063 121.511C195.316 123.637 190.278 130.214 187.835 136.947C186.256 141.294 185.39 145.859 184.507 150.362C183.632 154.824 182.637 159.184 181.329 163.557C179.649 169.169 177.934 174.776 175.943 180.295C174.068 185.492 172.046 190.697 169.036 195.359C163.908 203.3 156.193 208.922 147.228 209.786C139.038 210.575 131.063 207.869 124.573 203.219C114.578 196.057 105.55 183.231 92.0252 183.44C84.2376 183.561 76.1617 187.919 69.6399 192.511C61.665 198.125 54.6786 205.36 48.725 213.279C45.9106 217.022 43.332 220.946 40.9841 225.014C40.8992 225.161 41.1071 225.28 41.192 225.133C50.9002 208.305 65.6924 191.578 83.7653 185.365C87.542 184.068 91.369 183.339 95.2218 183.908C98.4476 184.384 101.468 185.661 104.242 187.311C110.086 190.786 114.942 195.735 120.156 200.09C125.526 204.573 131.214 208.092 138.143 209.505C145.554 211.016 153.481 209.914 160.131 205.228C167.681 199.909 171.969 191.511 175.221 182.943C178.923 173.192 182.25 163.009 184.275 152.821C186.053 143.877 187.463 134.525 193.764 127.416C199.071 121.428 206.159 120.023 213.163 121.669C226.149 124.721 236.229 134.694 249.398 137.215C261.307 139.495 274.618 137.559 285.951 131.804C296.952 126.216 305.958 116.181 307.128 103.153C307.832 95.331 306.739 87.4841 305.842 79.8411C304.871 71.5848 303.86 63.2321 304.543 54.787C305.282 45.6476 308.323 36.6271 314.14 29.3477C320.178 21.7924 328.716 16.9788 337.636 15.0732C341.894 14.1629 346.211 13.9167 350.462 14.2548C350.613 14.2731 350.621 14.0168 350.465 14.0039Z" fill="white"/>
<path d="M352.257 12.6841C343.876 11.8517 335.095 13.3218 327.291 17.4978C319.406 21.7177 313.083 28.6662 309.354 37.1014C302.351 52.9333 306.101 70.0463 308.038 85.9841C308.965 93.6299 309.935 101.914 307.759 109.643C305.882 116.314 301.77 122.09 296.564 126.452C285.873 135.406 271.421 138.969 258.479 138.342C252.111 138.032 246.045 136.547 240.415 133.717C234.08 130.53 228.148 126.572 221.684 123.637C216.11 121.106 209.67 118.974 203.349 120.699C196.601 122.537 191.411 128.929 188.859 135.565C185.541 144.191 185.098 153.583 182.592 162.422C181.006 168.017 179.384 173.605 177.507 179.121C175.638 184.623 173.64 190.203 170.632 195.207C165.68 203.449 158.029 209.555 148.89 210.658C140.449 211.677 132.051 208.878 125.367 204.07C115.056 196.649 106.27 183.413 92.5956 182.459C84.8019 181.913 76.5433 185.827 69.8341 190.188C61.6969 195.476 54.5554 202.562 48.5761 210.435C45.7209 214.196 43.1345 218.162 40.829 222.299C40.7472 222.445 40.9552 222.564 41.037 222.418C50.5506 205.356 66.0896 188.637 84.5951 183.645C92.0024 181.647 98.7157 183.254 104.833 187.293C110.695 191.165 115.589 196.367 120.947 200.913C126.517 205.64 132.538 209.234 139.806 210.578C147.351 211.972 155.34 210.589 161.914 205.585C169.493 199.812 173.541 190.964 176.72 182.104C180.279 172.199 183.381 161.97 185.266 151.665C186.926 142.581 188.444 133.103 195.103 126.106C200.616 120.314 207.811 119.451 214.696 121.33C227.655 124.871 237.7 135.034 250.976 137.702C263.075 140.133 276.672 138.203 288.187 132.271C299.274 126.563 308.17 116.307 309.138 103.154C309.727 95.1411 308.471 87.1332 307.417 79.338C306.282 70.9282 305.1 62.4207 305.675 53.7894C306.287 44.5969 309.218 35.5041 315.002 28.1239C321.114 20.3244 329.898 15.4088 339.048 13.5767C343.443 12.6961 347.889 12.5208 352.254 12.9525C352.404 12.9534 352.41 12.6981 352.257 12.6841Z" fill="white"/>
<path d="M354.075 11.3643C345.728 10.3727 336.955 11.6359 329.08 15.6247C320.846 19.7963 314.227 26.9266 310.407 35.6678C303.35 51.803 307.46 69.2235 309.705 85.3512C310.795 93.1828 311.966 101.678 309.868 109.659C308.111 116.349 304.125 122.206 298.981 126.644C288.25 135.906 273.538 139.546 260.418 138.892C253.944 138.567 247.747 137.05 242.05 134.106C235.692 130.823 229.776 126.732 223.337 123.599C217.711 120.861 211.205 118.419 204.701 119.886C197.821 121.436 192.449 127.751 189.775 134.424C186.328 143.027 186.176 152.43 183.791 161.282C182.259 166.966 180.699 172.648 178.896 178.261C177.077 183.925 175.131 189.704 172.228 194.93C167.477 203.485 159.936 210.089 150.627 211.49C142.038 212.782 133.258 209.969 126.421 205.118C120.466 200.891 115.476 195.408 109.949 190.631C105.017 186.37 99.442 182.429 92.8353 181.533C85.1326 180.489 76.8717 183.827 70.0198 187.901C61.7246 192.836 54.4139 199.756 48.406 207.57C45.5077 211.338 42.9198 215.345 40.6599 219.549C40.579 219.698 40.787 219.818 40.868 219.668C50.1303 202.436 66.4088 185.827 85.1825 182.097C100.848 178.987 111.157 192.643 121.638 201.661C127.347 206.573 133.629 210.233 141.13 211.554C148.89 212.918 157.057 211.287 163.636 205.903C171.138 199.763 174.97 190.591 178.058 181.555C181.469 171.568 184.365 161.336 186.12 150.986C187.676 141.813 189.202 132.26 195.977 125.259C201.602 119.447 208.926 118.817 215.817 120.864C228.821 124.726 238.839 135.165 252.197 138.078C264.399 140.741 278.206 138.905 289.892 132.969C301.152 127.25 310.177 116.869 311.108 103.534C311.681 95.3166 310.239 87.0918 309.031 79.1328C307.737 70.5925 306.37 61.9594 306.775 53.1625C307.203 43.879 309.953 34.6626 315.676 27.103C321.76 19.0713 330.636 14.0159 339.925 12.149C344.609 11.2098 349.356 11.0677 353.998 11.6182C354.158 11.6334 354.23 11.3848 354.075 11.3643Z" fill="white"/>
<path d="M355.861 10.0487C347.307 8.8734 338.26 10.0456 330.15 14.1286C321.822 18.3246 315.155 25.5636 311.373 34.4287C304.321 50.9436 308.886 68.715 311.418 85.0713C312.651 93.0417 313.977 101.69 311.926 109.862C310.232 116.611 306.283 122.556 301.128 127.058C290.322 136.499 275.424 140.157 262.168 139.434C255.593 139.074 249.291 137.488 243.538 134.424C237.142 131.019 231.211 126.78 224.761 123.466C219.121 120.57 212.584 117.88 205.97 119.111C198.99 120.409 193.518 126.592 190.7 133.278C187.063 141.917 187.061 151.484 184.881 160.448C183.468 166.254 181.881 172.052 180.13 177.78C178.363 183.566 176.462 189.484 173.647 194.876C169.09 203.611 161.711 210.622 152.332 212.3C143.466 213.885 134.277 210.984 127.21 205.981C121.153 201.694 116.114 196.075 110.625 191.072C105.642 186.53 100.083 182.188 93.3861 180.747C85.7871 179.112 77.5009 181.804 70.464 185.554C61.9193 190.109 54.3438 196.891 48.2426 204.719C45.3037 208.491 42.7104 212.536 40.5049 216.801C40.4271 216.949 40.6351 217.069 40.713 216.92C45.5268 207.605 52.2382 199.298 60.2077 192.748C67.7139 186.577 76.792 181.666 86.1248 180.641C101.728 178.926 111.958 193.443 122.419 202.515C128.301 207.616 134.932 211.358 142.713 212.589C150.376 213.798 158.371 212.033 164.783 206.662C172.581 200.136 176.359 190.314 179.428 180.812C182.756 170.515 185.416 160.103 187.097 149.485C188.549 140.312 190.263 130.748 197.292 123.988C203.059 118.442 210.419 118.284 217.141 120.481C230.205 124.744 240.241 135.476 253.775 138.541C266.11 141.335 280.121 139.534 291.952 133.495C303.448 127.627 312.463 116.916 313.132 103.299C313.54 94.9531 311.962 86.6571 310.61 78.5985C309.152 69.908 307.617 61.1191 307.911 52.1338C308.222 42.7096 310.916 33.3221 316.715 25.6271C322.979 17.3163 332.224 12.2288 341.829 10.5275C346.492 9.70061 351.191 9.65857 355.788 10.2908C355.944 10.3179 356.015 10.0693 355.861 10.0487Z" fill="white"/>
<path d="M357.646 8.72822C348.987 7.38201 339.776 8.42084 331.501 12.4876C323.095 16.6212 316.351 23.8519 312.525 32.7543C305.278 49.6287 310.228 67.816 313.071 84.4319C314.467 92.5773 315.992 101.428 314.038 109.842C312.444 116.705 308.544 122.773 303.368 127.393C292.539 137.057 277.404 140.754 264.028 139.992C257.434 139.613 251.068 138.03 245.31 134.918C238.828 131.412 232.868 127.001 226.392 123.48C220.701 120.388 214.1 117.397 207.32 118.358C200.174 119.371 194.629 125.421 191.623 132.162C187.801 140.725 187.837 150.477 185.955 159.47C184.754 165.205 183.167 170.935 181.546 176.58C179.83 182.562 177.976 188.667 175.284 194.313C170.966 203.364 163.748 211.019 154.192 213.082C145.079 215.047 135.465 212.089 128.154 206.994C121.859 202.607 116.687 196.739 111.121 191.443C106.113 186.682 100.604 182.044 93.9042 180.093C86.336 177.89 77.9676 179.954 70.6638 183.439C61.9725 187.587 54.2056 194.137 48.0552 201.905C45.0733 205.671 42.4801 209.748 40.3354 214.072C40.2615 214.222 40.4696 214.342 40.5435 214.191C45.2194 204.76 52.0927 196.441 60.2803 190.15C67.9134 184.285 77.2561 179.733 86.5484 179.422C102.294 178.901 112.371 193.943 123.03 203.268C129.088 208.567 136.057 212.444 144.12 213.613C152.003 214.752 160.13 212.671 166.516 206.917C174.244 199.95 177.833 189.693 180.805 179.942C182.609 174.019 184.127 168.019 185.611 162.02C186.692 157.646 187.269 153.205 187.925 148.774C189.311 139.374 191.139 129.414 198.631 122.753C204.649 117.403 212.178 117.824 218.816 120.257C231.851 125.039 241.932 135.978 255.661 139.097C268.1 141.925 282.249 140.122 294.162 133.96C305.832 127.925 314.745 116.899 315.142 103.071C315.386 94.5464 313.658 86.1278 312.153 77.9225C310.523 69.0283 308.815 60.0216 309.049 50.7924C309.292 41.2294 312.011 31.754 317.91 23.9577C324.307 15.5071 333.853 10.4797 343.634 8.94671C348.302 8.21321 352.998 8.27105 357.572 8.98125C357.727 9.00181 357.798 8.75309 357.646 8.72822Z" fill="white"/>
<path d="M359.431 7.40984C350.653 5.89347 341.261 6.80719 332.814 10.8705C324.209 15.0133 317.322 22.3976 313.494 31.5145C306.253 48.7644 311.68 67.3098 314.8 84.1511C316.321 92.3707 317.985 101.309 316.148 109.853C314.659 116.786 310.835 122.969 305.667 127.685C294.811 137.59 279.477 141.349 265.958 140.564C259.256 140.175 252.759 138.545 246.927 135.336C240.46 131.779 234.542 127.273 228.142 123.595C222.409 120.301 215.794 117.017 208.878 117.599C201.565 118.215 196.081 123.947 192.743 130.656C188.511 139.16 188.622 149.341 186.993 158.427C185.974 164.101 184.43 169.769 182.923 175.35C181.237 181.607 179.401 187.957 176.775 193.918C172.694 203.177 165.711 211.322 156.108 213.806C146.792 216.218 136.796 213.22 129.24 208.094C116.925 199.735 108.794 184.804 94.4769 179.55C86.7808 176.725 78.1526 178.231 70.4191 181.57C61.693 185.339 53.8208 191.632 47.6934 199.299C44.7418 202.993 42.2094 207.027 40.1728 211.32C40.1021 211.47 40.3077 211.593 40.3809 211.439C44.8691 201.971 51.8309 193.749 60.133 187.74C67.9579 182.08 77.6733 177.896 86.9841 178.291C103.031 178.974 112.951 194.762 124.047 204.382C135.894 214.658 154.673 220.207 168.165 207.172C175.9 199.701 179.328 188.891 182.219 178.783C183.914 172.855 185.432 166.854 186.758 160.848C187.75 156.349 188.21 151.773 188.845 147.234C190.175 137.765 192.337 127.424 200.352 121.216C206.681 116.314 214.333 117.507 220.803 120.196C233.6 125.518 243.67 136.435 257.401 139.618C269.988 142.533 284.355 140.723 296.397 134.408C308.16 128.237 316.952 116.986 317.146 103.044C317.396 84.8275 309.959 68.0178 310.185 49.7673C310.307 40.0645 312.971 30.4179 318.949 22.4885C325.413 13.9117 335.127 8.86784 345.039 7.42616C349.846 6.72892 354.669 6.84804 359.36 7.6619C359.515 7.68575 359.587 7.43696 359.431 7.40984Z" fill="white"/>
<path d="M361.221 6.08961C352.239 4.38822 342.572 5.20425 333.888 9.36619C325.247 13.5072 318.347 20.9324 314.54 30.0978C307.213 47.7323 313.074 66.6709 316.485 83.7605C318.163 92.1573 320.003 101.281 318.202 110.059C316.754 117.114 312.907 123.422 307.663 128.224C296.708 138.255 281.163 141.994 267.523 141.104C260.777 140.661 254.227 138.981 248.39 135.678C241.887 132.001 235.961 127.358 229.55 123.52C223.781 120.068 217.145 116.579 210.12 116.932C202.917 117.293 197.496 122.551 193.972 129.047C189.415 137.446 189.43 147.745 188.069 156.878C187.206 162.668 185.704 168.433 184.261 174.129C182.705 180.274 180.968 186.422 178.686 192.361C174.882 202.259 168.061 211.478 157.986 214.496C148.413 217.365 138.014 214.32 130.182 209.095C117.277 200.481 109.122 184.961 94.5237 178.897C78.4229 172.208 58.66 182.798 47.5056 196.49C44.5088 200.167 41.9822 204.229 40.019 208.577C39.949 208.73 40.1571 208.849 40.2271 208.696C44.5567 199.112 51.6975 190.921 60.2197 185.224C68.3323 179.801 78.4702 176.097 87.807 177.334C95.6971 178.38 102.233 183.2 107.909 188.526C113.725 193.984 118.898 200.175 124.935 205.382C137.154 215.924 156.684 221.285 170.059 207.147C177.618 199.159 180.844 187.929 183.622 177.552C185.186 171.714 186.71 165.784 187.821 159.86C188.7 155.164 189.12 150.413 189.765 145.694C191.05 136.279 193.522 125.786 201.811 120.024C208.248 115.548 215.814 117.108 222.116 119.887C234.965 125.56 245.068 136.78 258.98 140.093C271.697 143.122 286.265 141.349 298.445 134.928C304.116 131.938 309.39 127.761 313.191 122.3C317.151 116.612 319.142 109.829 319.152 103.016C319.167 94.0507 317.091 85.2715 315.273 76.6977C313.343 67.6101 311.333 58.3969 311.317 48.9054C311.3 39.0091 313.903 29.1292 319.993 21.0139C326.527 12.3068 336.401 7.25935 346.446 5.89816C351.393 5.22964 356.347 5.42645 361.152 6.33416C361.303 6.3699 361.374 6.11777 361.221 6.08961Z" fill="white"/>
</svg>
