<svg width="109" height="84" viewBox="0 0 109 84" fill="none" xmlns="http://www.w3.org/2000/svg">
<path d="M24.6236 24.3982C24.6236 29.3244 21.008 32.8371 17.1518 32.8371C13.2955 32.8371 9.67999 29.3244 9.67999 24.3982C9.67999 19.4721 13.2955 15.9594 17.1518 15.9594C21.008 15.9594 24.6236 19.4721 24.6236 24.3982ZM100.172 24.3982C100.172 29.3244 96.5562 32.8371 92.6999 32.8371C88.8437 32.8371 85.2281 29.3244 85.2281 24.3982C85.2281 19.4721 88.8437 15.9594 92.6999 15.9594C96.5562 15.9594 100.172 19.4721 100.172 24.3982ZM87.3036 45.3586H98.0962C101.952 45.3586 105.568 48.8712 105.568 53.7974V59.6773C105.568 61.3695 104.381 62.2363 103.493 62.2363H95.1727C93.7517 55.5967 90.3109 49.7889 85.5207 45.6013C86.096 45.4415 86.6934 45.3586 87.3036 45.3586ZM70.4921 21.4583C70.4921 31.2721 63.2678 38.717 54.9259 38.717C46.5839 38.717 39.3596 31.2721 39.3596 21.4583C39.3596 11.6445 46.5839 4.1997 54.9259 4.1997C63.2678 4.1997 70.4921 11.6445 70.4921 21.4583ZM54.9259 54.1783C59.3764 54.1783 63.5374 53.0682 67.2703 51.2384H67.877C76.5056 51.2384 83.9828 58.9588 83.9828 69.085V74.3768C83.9828 77.6861 81.5815 79.8758 79.2092 79.8758H30.6425C28.2703 79.8758 25.8689 77.6861 25.8689 74.3768V69.085C25.8689 58.9588 33.3461 51.2384 41.9747 51.2384H42.5842C46.3244 53.0659 50.4706 54.1783 54.9259 54.1783ZM22.5481 45.3586C23.1583 45.3586 23.7557 45.4415 24.331 45.6012C19.5396 49.7895 16.0973 55.5977 14.6668 62.2363H6.35919C5.4709 62.2363 4.28369 61.3695 4.28369 59.6773V53.7974C4.28369 48.8712 7.89924 45.3586 11.7555 45.3586H22.5481Z" fill="white" stroke="#0056D2" stroke-width="6.6416"/>
</svg>
