<svg width="20" height="20" viewBox="0 0 20 20" fill="none" xmlns="http://www.w3.org/2000/svg">
<g clip-path="url(#clip0_2868_3201)">
<path fill-rule="evenodd" clip-rule="evenodd" d="M16.6319 3.34203C14.8778 1.58582 12.5449 0.618217 10.0596 0.617188C4.93836 0.617188 0.770424 4.78501 0.768364 9.90761C0.767677 11.5451 1.19546 13.1437 2.00856 14.5527L0.69043 19.3672L5.61585 18.0751C6.97301 18.8155 8.50091 19.2056 10.0558 19.2061H10.0597C15.1804 19.2061 19.3488 15.0379 19.3507 9.91505C19.3517 7.43237 18.3862 5.09812 16.6319 3.34203ZM10.0596 17.637H10.0564C8.67074 17.6364 7.31175 17.264 6.12592 16.5605L5.84405 16.3931L2.92123 17.1598L3.70137 14.3102L3.51769 14.018C2.74464 12.7884 2.33643 11.3673 2.33712 9.90819C2.33872 5.65041 5.80308 2.1864 10.0627 2.1864C12.1254 2.18709 14.0643 2.99138 15.5223 4.45107C16.9803 5.91077 17.7828 7.851 17.7821 9.91448C17.7802 14.1726 14.3161 17.637 10.0596 17.637ZM14.2955 11.8532C14.0634 11.737 12.922 11.1755 12.7091 11.0979C12.4965 11.0204 12.3415 10.9819 12.1869 11.2142C12.0321 11.4465 11.5873 11.9695 11.4518 12.1243C11.3163 12.2793 11.181 12.2987 10.9488 12.1825C10.7166 12.0663 9.96861 11.8211 9.08181 11.0302C8.39173 10.4146 7.92584 9.65436 7.79034 9.42204C7.65507 9.1895 7.7892 9.07597 7.8922 8.94826C8.14351 8.63618 8.39516 8.30899 8.47253 8.15415C8.55 7.9992 8.51121 7.86358 8.45307 7.74743C8.39516 7.63127 7.93088 6.48858 7.73747 6.0236C7.54887 5.57111 7.35764 5.63222 7.21505 5.62512C7.07978 5.61837 6.92494 5.617 6.7701 5.617C6.61538 5.617 6.36384 5.67502 6.15098 5.90756C5.93823 6.13999 5.33856 6.70155 5.33856 7.84424C5.33856 8.98694 6.17043 10.0908 6.28648 10.2458C6.40252 10.4007 7.92355 12.7456 10.2523 13.7511C10.8062 13.9905 11.2386 14.1332 11.5758 14.2402C12.132 14.4169 12.6379 14.392 13.038 14.3322C13.4841 14.2655 14.4114 13.7706 14.6051 13.2283C14.7985 12.686 14.7985 12.2213 14.7403 12.1243C14.6824 12.0275 14.5276 11.9695 14.2955 11.8532Z" fill="#4E5566"/>
</g>
<defs>
<clipPath id="clip0_2868_3201">
<rect width="20" height="20" fill="white"/>
</clipPath>
</defs>
</svg>
