<svg width="28" height="29" viewBox="0 0 28 29" fill="none" xmlns="http://www.w3.org/2000/svg">
<path d="M28 8.70312V26.8594H19.6563C17.3636 26.8594 16.1577 28.414 16.0349 28.5H11.9651C11.8405 28.4128 10.6519 26.8594 8.34367 26.8594H0V7.0625H1.64062V25.2188H8.35078C10.9146 25.2188 12.3418 26.6653 12.6973 26.8594H15.3027C15.6581 26.6653 17.0856 25.2188 19.6492 25.2188H26.3594V8.70312H28Z" fill="#FFC645"/>
<path d="M11.5352 24.2327C10.5388 23.8018 9.46094 23.5781 8.35078 23.5781H3.28125V3.78125H4.92187V20.2969H7.38281C9.61844 20.2969 11.4472 22.0474 11.5352 24.2327Z" fill="#FFC645"/>
<path d="M19.6483 5.42188C17.9106 5.42188 16.237 5.87709 14.7617 6.74755C14.7998 7.1202 14.8194 7.49913 14.8194 7.88281V25.1844C14.9292 25.1047 15.0548 25.0164 15.198 24.9224C17.7309 23.2331 19.4761 23.5781 24.7178 23.5781V5.42188H19.6483Z" fill="#FFC645"/>
<path d="M13.1797 24.3984C13.1797 21.2322 10.5792 18.6562 7.38281 18.6562H6.5625V0.5C10.6636 0.5 13.1797 3.81193 13.1797 7.88281V24.3984Z" fill="#FFC645"/>
</svg>
